<svg width="65" height="58" viewBox="0 0 65 58" fill="none" xmlns="http://www.w3.org/2000/svg">
<g id="SVG">
<g id="Group">
<path id="Vector" d="M54.1234 6.03793V4.68822C54.1207 3.65267 53.7081 2.66032 52.9759 1.92808C52.2436 1.19583 51.2513 0.783253 50.2157 0.780518C49.1797 0.781647 48.1864 1.19371 47.4538 1.9263C46.7212 2.6589 46.3092 3.65218 46.308 4.68822V5.97453H42.3089V4.68822C42.3089 3.65289 41.898 2.65987 41.1665 1.92721C40.435 1.19455 39.4426 0.782133 38.4073 0.780518C37.3713 0.781808 36.3781 1.19393 35.6455 1.92648C34.913 2.65904 34.5009 3.65223 34.4996 4.68822V5.97453H30.5004V4.68822C30.5004 4.17545 30.3994 3.66771 30.2032 3.19397C30.007 2.72024 29.7194 2.28979 29.3568 1.92721C28.9942 1.56463 28.5638 1.27702 28.09 1.08079C27.6163 0.884562 27.1085 0.783565 26.5958 0.783565C26.083 0.783565 25.5753 0.884562 25.1015 1.08079C24.6278 1.27702 24.1973 1.56463 23.8348 1.92721C23.4722 2.28979 23.1846 2.72024 22.9883 3.19397C22.7921 3.66771 22.6911 4.17545 22.6911 4.68822V5.97453H18.692V4.68822C18.6892 3.65267 18.2767 2.66032 17.5444 1.92808C16.8122 1.19583 15.8198 0.783253 14.7843 0.780518C13.7483 0.781808 12.7551 1.19393 12.0225 1.92648C11.29 2.65904 10.8779 3.65223 10.8766 4.68822V6.03793C8.98104 6.27167 7.23613 7.18969 5.96983 8.61944C4.70353 10.0492 4.00303 11.8922 4 13.8021V49.9529C4.00242 52.0282 4.82789 54.0177 6.29532 55.4852C7.76276 56.9526 9.75233 57.7781 11.8276 57.7805H53.1724C55.2477 57.7781 57.2372 56.9526 58.7047 55.4852C60.1721 54.0177 60.9976 52.0282 61 49.9529V13.8021C60.997 11.8922 60.2965 10.0492 59.0302 8.61944C57.7639 7.18969 56.019 6.27167 54.1234 6.03793ZM48.4417 4.68822C48.4424 4.21792 48.6295 3.76707 48.962 3.43452C49.2946 3.10197 49.7454 2.91485 50.2157 2.91421C50.6853 2.91709 51.1349 3.10491 51.467 3.43698C51.799 3.76905 51.9869 4.21861 51.9897 4.68822V9.39453C51.9897 9.86503 51.8028 10.3162 51.4701 10.6489C51.1374 10.9816 50.6862 11.1685 50.2157 11.1685C49.7452 11.1685 49.294 10.9816 48.9613 10.6489C48.6286 10.3162 48.4417 9.86503 48.4417 9.39453V4.68822ZM36.6333 4.68822C36.6337 4.21787 36.8208 3.76693 37.1534 3.43434C37.486 3.10175 37.9369 2.91469 38.4073 2.91421C38.8768 2.91566 39.3265 3.10323 39.6579 3.43578C39.9893 3.76833 40.1754 4.21873 40.1752 4.68822V9.39453C40.1752 9.86422 39.9886 10.3147 39.6565 10.6468C39.3244 10.9789 38.8739 11.1655 38.4042 11.1655C37.9345 11.1655 37.4841 10.9789 37.152 10.6468C36.8198 10.3147 36.6333 9.86422 36.6333 9.39453V4.68822ZM24.8248 4.68822C24.8248 4.21853 25.0114 3.76808 25.3435 3.43596C25.6756 3.10384 26.1261 2.91726 26.5958 2.91726C27.0655 2.91726 27.5159 3.10384 27.848 3.43596C28.1802 3.76808 28.3667 4.21853 28.3667 4.68822V9.39453C28.3667 9.86422 28.1802 10.3147 27.848 10.6468C27.5159 10.9789 27.0655 11.1655 26.5958 11.1655C26.1261 11.1655 25.6756 10.9789 25.3435 10.6468C25.0114 10.3147 24.8248 9.86422 24.8248 9.39453V4.68822ZM13.0103 4.68822C13.0107 4.21787 13.1978 3.76693 13.5304 3.43434C13.863 3.10175 14.3139 2.91469 14.7843 2.91421C15.2539 2.91709 15.7034 3.10491 16.0355 3.43698C16.3676 3.76905 16.5554 4.21861 16.5583 4.68822V9.39453C16.5583 9.86503 16.3714 10.3162 16.0387 10.6489C15.706 10.9816 15.2548 11.1685 14.7843 11.1685C14.3138 11.1685 13.8626 10.9816 13.5299 10.6489C13.1972 10.3162 13.0103 9.86503 13.0103 9.39453V4.68822ZM10.8766 8.19418V9.39453C10.8766 10.4309 11.2883 11.4248 12.0211 12.1577C12.754 12.8905 13.7479 13.3022 14.7843 13.3022C15.8207 13.3022 16.8146 12.8905 17.5474 12.1577C18.2803 11.4248 18.692 10.4309 18.692 9.39453V8.10822H22.6911V9.39453C22.6911 10.4301 23.1025 11.4232 23.8348 12.1555C24.567 12.8878 25.5602 13.2992 26.5958 13.2992C27.6314 13.2992 28.6245 12.8878 29.3568 12.1555C30.089 11.4232 30.5004 10.4301 30.5004 9.39453V8.10822H34.4996V9.39453C34.4996 10.4301 34.911 11.4232 35.6432 12.1555C36.3755 12.8878 37.3686 13.2992 38.4042 13.2992C39.4398 13.2992 40.433 12.8878 41.1652 12.1555C41.8975 11.4232 42.3089 10.4301 42.3089 9.39453V8.10822H46.308V9.39453C46.308 10.4309 46.7197 11.4248 47.4526 12.1577C48.1854 12.8905 49.1793 13.3022 50.2157 13.3022C51.2521 13.3022 52.246 12.8905 52.9789 12.1577C53.7117 11.4248 54.1234 10.4309 54.1234 9.39453V8.19418C55.4484 8.41962 56.6511 9.10613 57.519 10.1324C58.3869 11.1587 58.8641 12.4587 58.8663 13.8027V17.0136H6.13369V13.8021C6.13607 12.4582 6.61335 11.1583 7.48121 10.1322C8.34908 9.10602 9.55168 8.4196 10.8766 8.19418ZM53.1724 55.6468H11.8276C10.318 55.645 8.87079 55.0446 7.80336 53.9771C6.73593 52.9097 6.13546 51.4625 6.13369 49.9529V19.1485H58.8663V49.9529C58.8645 51.4625 58.2641 52.9097 57.1966 53.9771C56.1292 55.0446 54.682 55.645 53.1724 55.6468Z" fill="#FA7436"/>
<path id="Vector_2" d="M18.896 24.4856H14.5884C13.8385 24.4865 13.1196 24.7849 12.5893 25.3151C12.0591 25.8454 11.7607 26.5643 11.7598 27.3142V31.6218C11.7607 32.3718 12.0591 33.0907 12.5893 33.6209C13.1196 34.1512 13.8385 34.4495 14.5884 34.4505H18.896C19.646 34.4495 20.3649 34.1512 20.8951 33.6209C21.4254 33.0907 21.7237 32.3718 21.7247 31.6218V27.3142C21.7237 26.5643 21.4254 25.8454 20.8951 25.3151C20.3649 24.7849 19.646 24.4865 18.896 24.4856ZM19.591 31.6218C19.5909 31.8061 19.5176 31.9828 19.3873 32.1131C19.257 32.2434 19.0803 32.3167 18.896 32.3168H14.5884C14.4042 32.3167 14.2275 32.2434 14.0972 32.1131C13.9669 31.9828 13.8936 31.8061 13.8935 31.6218V27.3142C13.8936 27.13 13.9669 26.9533 14.0972 26.823C14.2275 26.6927 14.4042 26.6194 14.5884 26.6193H18.896C19.0803 26.6194 19.257 26.6927 19.3873 26.823C19.5176 26.9533 19.5909 27.13 19.591 27.3142V31.6218ZM34.6543 24.4856H30.3466C29.5967 24.4865 28.8778 24.7849 28.3475 25.3151C27.8173 25.8454 27.5189 26.5643 27.518 27.3142V31.6218C27.5189 32.3718 27.8173 33.0907 28.3475 33.6209C28.8778 34.1512 29.5967 34.4495 30.3466 34.4505H34.6543C35.4042 34.4495 36.1231 34.1512 36.6534 33.6209C37.1836 33.0907 37.482 32.3718 37.4829 31.6218V27.3142C37.482 26.5643 37.1836 25.8454 36.6534 25.3151C36.1231 24.7849 35.4042 24.4865 34.6543 24.4856ZM35.3492 31.6218C35.3491 31.8061 35.2758 31.9828 35.1455 32.1131C35.0152 32.2434 34.8385 32.3167 34.6543 32.3168H30.3466C30.1624 32.3167 29.9857 32.2434 29.8554 32.1131C29.7251 31.9828 29.6518 31.8061 29.6517 31.6218V27.3142C29.6518 27.13 29.7251 26.9533 29.8554 26.823C29.9857 26.6927 30.1624 26.6194 30.3466 26.6193H34.6543C34.8385 26.6194 35.0152 26.6927 35.1455 26.823C35.2758 26.9533 35.3491 27.13 35.3492 27.3142V31.6218ZM51.7951 25.945L47.0095 30.7281L44.7198 28.4384C44.5185 28.2441 44.249 28.1366 43.9693 28.1391C43.6896 28.1416 43.422 28.2538 43.2243 28.4517C43.0265 28.6495 42.9144 28.9171 42.912 29.1968C42.9096 29.4766 43.0172 29.746 43.2116 29.9472L46.2554 32.9911C46.3545 33.0902 46.4721 33.1689 46.6015 33.2225C46.731 33.2762 46.8697 33.3038 47.0098 33.3038C47.15 33.3038 47.2887 33.2762 47.4182 33.2225C47.5476 33.1689 47.6652 33.0902 47.7643 32.9911L53.3039 27.4514C53.403 27.3523 53.4816 27.2347 53.5352 27.1053C53.5888 26.9758 53.6164 26.8371 53.6164 26.697C53.6164 26.5569 53.5888 26.4181 53.5352 26.2887C53.4816 26.1593 53.403 26.0416 53.3039 25.9426C53.2049 25.8435 53.0872 25.7649 52.9578 25.7113C52.8284 25.6577 52.6896 25.6301 52.5495 25.6301C52.4094 25.6301 52.2707 25.6577 52.1412 25.7113C52.0118 25.7649 51.8942 25.8435 51.7951 25.9426V25.945ZM18.896 39.1812H14.5884C13.8385 39.1822 13.1196 39.4805 12.5893 40.0108C12.0591 40.541 11.7607 41.26 11.7598 42.0099V46.3175C11.7607 47.0674 12.0591 47.7863 12.5893 48.3166C13.1196 48.8468 13.8385 49.1452 14.5884 49.1461H18.896C19.646 49.1452 20.3649 48.8468 20.8951 48.3166C21.4254 47.7863 21.7237 47.0674 21.7247 46.3175V42.0099C21.7237 41.26 21.4254 40.541 20.8951 40.0108C20.3649 39.4805 19.646 39.1822 18.896 39.1812ZM19.591 46.3175C19.5909 46.5018 19.5176 46.6784 19.3873 46.8087C19.257 46.939 19.0803 47.0123 18.896 47.0125H14.5884C14.4042 47.0123 14.2275 46.939 14.0972 46.8087C13.9669 46.6784 13.8936 46.5018 13.8935 46.3175V42.0099C13.8936 41.8256 13.9669 41.6489 14.0972 41.5186C14.2275 41.3883 14.4042 41.3151 14.5884 41.3149H18.896C19.0803 41.3151 19.257 41.3883 19.3873 41.5186C19.5176 41.6489 19.5909 41.8256 19.591 42.0099V46.3175ZM34.6543 39.1812H30.3466C29.5967 39.1822 28.8778 39.4805 28.3475 40.0108C27.8173 40.541 27.5189 41.26 27.518 42.0099V46.3175C27.5189 47.0674 27.8173 47.7863 28.3475 48.3166C28.8778 48.8468 29.5967 49.1452 30.3466 49.1461H34.6543C35.4042 49.1452 36.1231 48.8468 36.6534 48.3166C37.1836 47.7863 37.482 47.0674 37.4829 46.3175V42.0099C37.482 41.26 37.1836 40.541 36.6534 40.0108C36.1231 39.4805 35.4042 39.1822 34.6543 39.1812ZM35.3492 46.3175C35.3491 46.5018 35.2758 46.6784 35.1455 46.8087C35.0152 46.939 34.8385 47.0123 34.6543 47.0125H30.3466C30.1624 47.0123 29.9857 46.939 29.8554 46.8087C29.7251 46.6784 29.6518 46.5018 29.6517 46.3175V42.0099C29.6518 41.8256 29.7251 41.6489 29.8554 41.5186C29.9857 41.3883 30.1624 41.3151 30.3466 41.3149H34.6543C34.8385 41.3151 35.0152 41.3883 35.1455 41.5186C35.2758 41.6489 35.3491 41.8256 35.3492 42.0099V46.3175ZM50.4125 39.1812H46.1049C45.3549 39.1822 44.636 39.4805 44.1058 40.0108C43.5755 40.541 43.2772 41.26 43.2762 42.0099V46.3175C43.2772 47.0674 43.5755 47.7863 44.1058 48.3166C44.636 48.8468 45.3549 49.1452 46.1049 49.1461H50.4125C51.1624 49.1452 51.8813 48.8468 52.4116 48.3166C52.9418 47.7863 53.2402 47.0674 53.2411 46.3175V42.0099C53.2402 41.26 52.9418 40.541 52.4116 40.0108C51.8813 39.4805 51.1624 39.1822 50.4125 39.1812ZM51.1075 46.3175C51.1073 46.5018 51.034 46.6784 50.9037 46.8087C50.7734 46.939 50.5967 47.0123 50.4125 47.0125H46.1049C45.9206 47.0123 45.7439 46.939 45.6136 46.8087C45.4833 46.6784 45.41 46.5018 45.4099 46.3175V42.0099C45.41 41.8256 45.4833 41.6489 45.6136 41.5186C45.7439 41.3883 45.9206 41.3151 46.1049 41.3149H50.4125C50.5967 41.3151 50.7734 41.3883 50.9037 41.5186C51.034 41.6489 51.1073 41.8256 51.1075 42.0099V46.3175Z" fill="#FA7436"/>
</g>
</g>
</svg>
