<svg width="65" height="58" viewBox="0 0 65 58" fill="none" xmlns="http://www.w3.org/2000/svg">
<g id="SVG">
<g id="Group">
<path id="Vector" d="M21.6258 22.3791C21.4615 22.3791 21.3038 22.3138 21.1876 22.1976C21.0713 22.0813 21.006 21.9237 21.006 21.7593V18.2091H20.2128C19.5829 18.2077 18.9792 17.9564 18.5343 17.5104C18.0895 17.0644 17.8397 16.4601 17.8398 15.8301V8.24617C17.8406 7.61712 18.0909 7.01406 18.5358 6.5693C18.9807 6.12455 19.5838 5.87442 20.2128 5.87378H27.8214C27.9857 5.87378 28.1433 5.93905 28.2595 6.05523C28.3756 6.17141 28.4409 6.32898 28.4409 6.49328C28.4409 6.65758 28.3756 6.81515 28.2595 6.93133C28.1433 7.04751 27.9857 7.11278 27.8214 7.11278H20.2134C19.5882 7.11278 19.0794 7.62157 19.0794 8.24677V15.8307C19.0794 16.4589 19.5882 16.9701 20.2134 16.9701H21.6258C21.9678 16.9701 22.2456 17.2473 22.2456 17.5899V20.2653L25.3638 17.1513C25.4796 17.0349 25.638 16.9701 25.8018 16.9701H35.4234C36.048 16.9701 36.5574 16.4589 36.5574 15.8301V12.4971C36.5574 12.3328 36.6227 12.1753 36.7388 12.0591C36.855 11.9429 37.0126 11.8776 37.1769 11.8776C37.3412 11.8776 37.4988 11.9429 37.6149 12.0591C37.7311 12.1753 37.7964 12.3328 37.7964 12.4971V15.8301C37.7965 16.4601 37.5468 17.0644 37.1019 17.5104C36.657 17.9564 36.0534 18.2077 35.4234 18.2091H26.0586L22.0638 22.1979C21.9476 22.3139 21.7901 22.3791 21.6258 22.3791Z" fill="#FA7436"/>
<path id="Vector_2" d="M43.3716 17.287C43.2108 17.287 43.0524 17.224 42.9336 17.1058L38.9436 13.1159H29.5746C28.9443 13.1146 28.3402 12.8633 27.8949 12.4172C27.4496 11.9711 27.1994 11.3666 27.1992 10.7363V3.15591C27.1999 2.52601 27.4504 1.9221 27.8959 1.47674C28.3413 1.03139 28.9453 0.780994 29.5752 0.780518H44.7834C45.4132 0.781153 46.017 1.03162 46.4623 1.47696C46.9077 1.92229 47.1581 2.52611 47.1588 3.15591V10.7363C47.1584 11.3666 46.9081 11.9711 46.4627 12.4171C46.0173 12.863 45.4131 13.1141 44.7828 13.1153H43.9908V16.6672C43.9909 16.7486 43.9749 16.8292 43.9438 16.9044C43.9127 16.9796 43.8671 17.0479 43.8096 17.1055C43.7521 17.163 43.6838 17.2087 43.6087 17.2398C43.5335 17.271 43.4529 17.287 43.3716 17.287ZM29.5746 2.01951C28.9482 2.01951 28.4388 2.52951 28.4388 3.15591V10.7363C28.4388 11.3651 28.9482 11.8763 29.5746 11.8763H39.1998C39.3642 11.8763 39.522 11.9423 39.6378 12.0581L42.7518 15.172V12.4961C42.7518 12.1541 43.029 11.8763 43.3716 11.8763H44.7834C45.085 11.8753 45.374 11.7548 45.5869 11.5411C45.7998 11.3273 45.9193 11.0379 45.9192 10.7363V3.15591C45.9192 2.52951 45.4098 2.01951 44.7834 2.01951H29.5746Z" fill="#FA7436"/>
<path id="Vector_3" d="M38.0131 5.74412H31.2367C31.0724 5.74412 30.9148 5.67886 30.7986 5.56268C30.6825 5.4465 30.6172 5.28893 30.6172 5.12463C30.6172 4.96032 30.6825 4.80275 30.7986 4.68657C30.9148 4.5704 31.0724 4.50513 31.2367 4.50513H38.0131C38.1774 4.50513 38.3349 4.5704 38.4511 4.68657C38.5673 4.80275 38.6326 4.96032 38.6326 5.12463C38.6326 5.28893 38.5673 5.4465 38.4511 5.56268C38.3349 5.67886 38.1774 5.74412 38.0131 5.74412ZM43.1172 5.74412H40.7437C40.5794 5.74412 40.4218 5.67886 40.3056 5.56268C40.1894 5.4465 40.1242 5.28893 40.1242 5.12463C40.1242 4.96032 40.1894 4.80275 40.3056 4.68657C40.4218 4.5704 40.5794 4.50513 40.7437 4.50513H43.1172C43.2815 4.50513 43.4391 4.5704 43.5553 4.68657C43.6715 4.80275 43.7367 4.96032 43.7367 5.12463C43.7367 5.28893 43.6715 5.4465 43.5553 5.56268C43.4391 5.67886 43.2815 5.74412 43.1172 5.74412ZM43.1172 9.39151H36.3415C36.1772 9.39151 36.0196 9.32625 35.9034 9.21007C35.7872 9.09389 35.722 8.93632 35.722 8.77201C35.722 8.60771 35.7872 8.45014 35.9034 8.33396C36.0196 8.21779 36.1772 8.15252 36.3415 8.15252H43.1172C43.2815 8.15252 43.4391 8.21779 43.5553 8.33396C43.6715 8.45014 43.7367 8.60771 43.7367 8.77201C43.7367 8.93632 43.6715 9.09389 43.5553 9.21007C43.4391 9.32625 43.2815 9.39151 43.1172 9.39151ZM33.6109 9.39211H31.2373C31.0729 9.39211 30.9153 9.32681 30.799 9.21058C30.6828 9.09434 30.6175 8.9367 30.6175 8.77232C30.6175 8.60793 30.6828 8.45029 30.799 8.33405C30.9153 8.21782 31.0729 8.15252 31.2373 8.15252H33.6115C33.7759 8.15252 33.9335 8.21782 34.0497 8.33405C34.166 8.45029 34.2313 8.60793 34.2313 8.77232C34.2313 8.9367 34.166 9.09434 34.0497 9.21058C33.9335 9.32681 33.7753 9.39211 33.6109 9.39211ZM52.7988 53.072H49.1868C48.4509 53.0761 47.7406 52.8016 47.1986 52.3037C46.6566 51.8058 46.323 51.1213 46.2648 50.3876L45.699 41.7728H45.1938C44.8348 41.7741 44.4794 41.7015 44.1497 41.5595C43.82 41.4174 43.5231 41.209 43.2775 40.9472C43.0297 40.6874 42.8382 40.3794 42.7147 40.0424C42.5912 39.7054 42.5385 39.3465 42.5599 38.9882L42.9324 32.2502C43.0146 30.7749 43.6586 29.3871 44.732 28.3717C45.8054 27.3563 47.2268 26.7904 48.7044 26.7902H53.2818C54.7592 26.7908 56.1802 27.3569 57.2534 28.3723C58.3265 29.3876 58.9703 30.7752 59.0526 32.2502L59.4252 38.9882C59.4466 39.3466 59.3939 39.7056 59.2704 40.0427C59.147 40.3798 58.9554 40.6879 58.7076 40.9478C58.462 41.2094 58.1651 41.4177 57.8355 41.5596C57.5059 41.7015 57.1507 41.7741 56.7918 41.7728H56.2866L55.722 50.3756C55.5912 51.9176 54.3342 53.072 52.7988 53.072ZM48.7038 28.0292C47.5429 28.0294 46.4261 28.4741 45.5828 29.2719C44.7395 30.0697 44.2336 31.1601 44.169 32.3192L43.7964 39.0566C43.7852 39.2467 43.8132 39.4371 43.8787 39.6159C43.9443 39.7947 44.046 39.958 44.1774 40.0958C44.3077 40.2347 44.4652 40.3453 44.64 40.4206C44.8149 40.496 45.0034 40.5345 45.1938 40.5338H46.2798C46.6062 40.5338 46.8768 40.7864 46.8978 41.1122L47.4996 50.2946C47.5722 51.152 48.3144 51.833 49.1868 51.833H52.7988C53.2239 51.8353 53.6342 51.6768 53.9472 51.3893C54.2603 51.1017 54.453 50.7063 54.4866 50.2826L55.0872 41.1128C55.0976 40.9559 55.1672 40.8088 55.2819 40.7013C55.3967 40.5938 55.548 40.5339 55.7052 40.5338H56.7912C56.9815 40.5345 57.1699 40.4961 57.3446 40.4208C57.5194 40.3455 57.6768 40.2351 57.807 40.0964C58.074 39.8144 58.209 39.4454 58.188 39.0572L57.8154 32.3192C57.7509 31.1602 57.2451 30.0699 56.4019 29.2721C55.5587 28.4743 54.442 28.0296 53.2812 28.0292H48.7038Z" fill="#FA7436"/>
<path id="Vector_4" d="M50.9956 53.0715C50.6536 53.0715 50.3758 52.7943 50.3758 52.4517V41.4903C50.3758 41.3259 50.4411 41.1683 50.5573 41.0521C50.6736 40.9358 50.8312 40.8705 50.9956 40.8705C51.16 40.8705 51.3176 40.9358 51.4338 41.0521C51.5501 41.1683 51.6154 41.3259 51.6154 41.4903V52.4523C51.6154 52.7943 51.3382 53.0715 50.9956 53.0715ZM50.9956 27.9664C48.5458 27.9664 46.3966 25.357 46.3966 22.3822C46.3966 19.6774 48.331 17.7136 50.9956 17.7136C53.6602 17.7136 55.5946 19.6774 55.5946 22.3822C55.5946 25.357 53.4454 27.9664 50.9956 27.9664ZM50.9956 18.9526C49.0174 18.9526 47.6356 20.3626 47.6356 22.3822C47.6356 24.6562 49.2376 26.7274 50.9956 26.7274C52.7536 26.7274 54.3556 24.6562 54.3556 22.3822C54.3556 20.3632 52.9738 18.9526 50.9956 18.9526ZM46.282 41.7723H46.267C46.1856 41.7703 46.1054 41.7523 46.031 41.7192C45.9565 41.6862 45.8894 41.6388 45.8332 41.5798C45.7771 41.5208 45.7332 41.4513 45.704 41.3753C45.6747 41.2993 45.6607 41.2183 45.6628 41.1369L45.856 33.3753C45.8644 33.034 46.171 32.7592 46.4902 32.7718C46.8328 32.7802 47.1034 33.0645 47.095 33.4065L46.9018 41.1681C46.8977 41.3297 46.8307 41.4833 46.7151 41.5961C46.5994 41.709 46.4436 41.7722 46.282 41.7723ZM55.7086 41.7723C55.547 41.7722 55.3918 41.709 55.2761 41.5961C55.1604 41.4833 55.0934 41.3297 55.0894 41.1681L54.8956 33.4065C54.8935 33.3252 54.9075 33.2442 54.9367 33.1682C54.966 33.0923 55.0099 33.0228 55.0661 32.9639C55.1222 32.9049 55.1894 32.8576 55.2638 32.8246C55.3382 32.7917 55.4184 32.7737 55.4998 32.7718H55.5154C55.8502 32.7718 56.1262 33.0388 56.1346 33.3753L56.3284 41.1369C56.3304 41.2182 56.3165 41.2992 56.2873 41.3751C56.258 41.451 56.2142 41.5204 56.1581 41.5794C56.102 41.6383 56.0349 41.6857 55.9606 41.7187C55.8862 41.7517 55.8061 41.7697 55.7248 41.7717L55.7086 41.7723ZM34.306 57.7803H30.694C29.9581 57.7844 29.2478 57.5099 28.7058 57.012C28.1638 56.5141 27.8302 55.8296 27.7721 55.0959L27.2063 46.4805H26.7011C26.3422 46.4819 25.987 46.4095 25.6574 46.2676C25.3278 46.1258 25.0309 45.9176 24.7853 45.6561C24.5375 45.3964 24.3458 45.0884 24.2222 44.7514C24.0987 44.4143 24.0459 44.0555 24.0671 43.6971L24.4403 36.9591C24.522 35.4838 25.1656 34.0957 26.2388 33.0801C27.312 32.0644 28.7334 31.4983 30.211 31.498H34.789C36.2667 31.4983 37.688 32.0644 38.7613 33.0801C39.8345 34.0957 40.4781 35.4838 40.5598 36.9591L40.933 43.6971C40.9542 44.0555 40.9013 44.4143 40.7778 44.7514C40.6542 45.0884 40.4626 45.3964 40.2148 45.6561C39.9692 45.9176 39.6723 46.1258 39.3427 46.2676C39.0131 46.4095 38.6578 46.4819 38.299 46.4805H37.7938L37.2298 55.0839C37.099 56.6259 35.842 57.7803 34.306 57.7803ZM30.211 32.7376C29.0502 32.7379 27.9336 33.1826 27.0904 33.9804C26.2472 34.7782 25.7414 35.8685 25.6769 37.0275L25.3037 43.7655C25.2827 44.1531 25.4177 44.5215 25.6853 44.8041C25.9523 45.0861 26.3129 45.2421 26.7011 45.2421H27.7871C28.1135 45.2421 28.3841 45.4947 28.4051 45.8205L29.0069 55.0029C29.0795 55.8603 29.8216 56.5413 30.694 56.5413H34.306C34.7298 56.539 35.1376 56.3789 35.4497 56.0923C35.7619 55.8056 35.9561 55.413 35.9944 54.9909L36.5944 45.8205C36.6046 45.6635 36.6743 45.5162 36.7892 45.4086C36.9041 45.3011 37.0556 45.2413 37.213 45.2415H38.299C38.6872 45.2415 39.0478 45.0867 39.3148 44.8041C39.5818 44.5221 39.7174 44.1531 39.6964 43.7649L39.3232 37.0269C39.2587 35.8679 38.7529 34.7776 37.9097 33.9798C37.0665 33.182 35.9498 32.7373 34.789 32.737L30.211 32.7376Z" fill="#FA7436"/>
<path id="Vector_5" d="M32.4984 57.7805C32.1564 57.7805 31.8786 57.5033 31.8786 57.1607V46.1987C31.8786 46.0343 31.9439 45.8767 32.0601 45.7604C32.1763 45.6442 32.334 45.5789 32.4984 45.5789C32.6627 45.5789 32.8204 45.6442 32.9366 45.7604C33.0529 45.8767 33.1182 46.0343 33.1182 46.1987V57.1607C33.1182 57.5027 32.841 57.7805 32.4984 57.7805ZM32.4984 32.6753C30.0486 32.6753 27.8994 30.0654 27.8994 27.0912C27.8994 24.3858 29.8338 22.4226 32.4984 22.4226C35.163 22.4226 37.0973 24.3858 37.0973 27.0912C37.0973 30.066 34.9482 32.6753 32.4984 32.6753ZM32.4984 23.6616C30.5202 23.6616 29.1384 25.0716 29.1384 27.0912C29.1384 29.3652 30.7404 31.4358 32.4984 31.4358C34.2564 31.4358 35.8583 29.3658 35.8583 27.0918C35.8583 25.0722 34.4766 23.6616 32.4984 23.6616ZM27.7854 46.4807H27.7698C27.6055 46.4766 27.4495 46.4075 27.3362 46.2884C27.2229 46.1694 27.1615 46.0102 27.1656 45.8459L27.3588 38.0843C27.3678 37.7429 27.6372 37.4561 27.993 37.4807C28.3356 37.4891 28.6062 37.7735 28.5978 38.1155L28.4046 45.8771C28.4004 46.0386 28.3333 46.192 28.2176 46.3047C28.102 46.4175 27.9469 46.4806 27.7854 46.4807ZM37.2113 46.4807C37.0498 46.4806 36.8947 46.4175 36.7791 46.3047C36.6634 46.192 36.5964 46.0386 36.5921 45.8771L36.3983 38.1155C36.3964 38.0341 36.4104 37.9531 36.4397 37.8772C36.4691 37.8012 36.5131 37.7318 36.5692 37.6728C36.6254 37.6139 36.6926 37.5666 36.7671 37.5336C36.8415 37.5006 36.9217 37.4827 37.0031 37.4807C37.3331 37.4603 37.6289 37.7435 37.6373 38.0849L37.8305 45.8459C37.8346 46.0102 37.7732 46.1694 37.6599 46.2884C37.5466 46.4075 37.3906 46.4766 37.2263 46.4807H37.2113ZM15.8088 53.0717H12.1968C11.4608 53.0758 10.7506 52.8014 10.2086 52.3034C9.66656 51.8055 9.33299 51.121 9.27483 50.3873L8.70903 41.7725H8.20443C7.84558 41.7738 7.4903 41.7013 7.16071 41.5593C6.83112 41.4174 6.53427 41.2091 6.28864 40.9475C6.04087 40.6877 5.84928 40.3796 5.72582 40.0424C5.60236 39.7053 5.54967 39.3463 5.57104 38.9879L5.94364 32.25C6.02568 30.7748 6.66938 29.3871 7.74258 28.3717C8.81577 27.3563 10.237 26.7903 11.7144 26.79H16.2924C17.7698 26.7904 19.1911 27.3564 20.2643 28.3718C21.3376 29.3871 21.9815 30.7748 22.0638 32.25L22.4364 38.9879C22.4577 39.3462 22.405 39.7051 22.2815 40.0421C22.1581 40.3792 21.9665 40.6872 21.7188 40.9469C21.4732 41.2088 21.1762 41.4172 20.8465 41.5592C20.5168 41.7013 20.1614 41.7739 19.8024 41.7725H19.2972L18.7332 50.3753C18.6024 51.9173 17.3448 53.0717 15.8088 53.0717ZM11.7144 28.029C10.5536 28.0293 9.43699 28.474 8.59379 29.2718C7.75058 30.0696 7.24478 31.1599 7.18024 32.3189L6.80764 39.0563C6.78664 39.4445 6.92164 39.8135 7.18864 40.0955C7.31881 40.2344 7.47618 40.3449 7.65094 40.4203C7.82571 40.4956 8.01412 40.5342 8.20443 40.5335H9.29043C9.61683 40.5335 9.88683 40.7861 9.90843 41.1119L10.5108 50.2943C10.5465 50.7159 10.7399 51.1086 11.0525 51.3938C11.365 51.679 11.7737 51.8357 12.1968 51.8327H15.8094C16.2332 51.8304 16.641 51.6703 16.9531 51.3837C17.2653 51.097 17.4595 50.7044 17.4978 50.2823L18.0978 41.1119C18.108 40.9549 18.1777 40.8076 18.2926 40.7001C18.4075 40.5925 18.559 40.5327 18.7164 40.5329H19.8024C20.1906 40.5329 20.5518 40.3775 20.8188 40.0949C20.9502 39.9572 21.0519 39.794 21.1174 39.6153C21.183 39.4366 21.211 39.2463 21.1998 39.0563L20.8272 32.3184C20.7626 31.1592 20.2568 30.0688 19.4134 29.271C18.5701 28.4732 17.4533 28.0286 16.2924 28.0284L11.7144 28.029Z" fill="#FA7436"/>
<path id="Vector_6" d="M14.0049 53.0715C13.6629 53.0715 13.3851 52.7943 13.3851 52.4517V41.4903C13.3851 41.3259 13.4504 41.1683 13.5666 41.0521C13.6829 40.9358 13.8405 40.8705 14.0049 40.8705C14.1693 40.8705 14.3269 40.9358 14.4431 41.0521C14.5594 41.1683 14.6247 41.3259 14.6247 41.4903V52.4523C14.6247 52.7943 14.3475 53.0715 14.0049 53.0715ZM14.0049 27.9664C11.5551 27.9664 9.40589 25.357 9.40589 22.3822C9.40589 19.6774 11.3403 17.7136 14.0049 17.7136C16.6695 17.7136 18.6039 19.6774 18.6039 22.3822C18.6039 25.357 16.4547 27.9664 14.0049 27.9664ZM14.0049 18.9526C12.0267 18.9526 10.6449 20.3626 10.6449 22.3822C10.6449 24.6562 12.2469 26.7274 14.0049 26.7274C15.7629 26.7274 17.3649 24.6562 17.3649 22.3822C17.3649 20.3632 15.9831 18.9526 14.0049 18.9526ZM9.29189 41.7723H9.27569C9.19432 41.7703 9.11414 41.7523 9.03975 41.7192C8.96535 41.6862 8.89821 41.6388 8.84214 41.5798C8.78608 41.5208 8.74221 41.4513 8.71303 41.3753C8.68385 41.2993 8.66994 41.2183 8.67209 41.1369L8.86589 33.3753C8.87011 33.2139 8.93719 33.0605 9.05284 32.9477C9.16849 32.835 9.32358 32.7719 9.48509 32.7717H9.50069C9.84269 32.7801 10.1127 33.0645 10.1049 33.4065L9.91109 41.1681C9.90702 41.3297 9.84001 41.4833 9.72434 41.5961C9.60868 41.709 9.4535 41.7722 9.29189 41.7723ZM18.7185 41.7723C18.5569 41.7722 18.4017 41.709 18.286 41.5961C18.1703 41.4833 18.1033 41.3297 18.0993 41.1681L17.9055 33.4065C17.9034 33.3252 17.9174 33.2442 17.9466 33.1682C17.9759 33.0923 18.0198 33.0228 18.0759 32.9639C18.1321 32.9049 18.1993 32.8576 18.2737 32.8246C18.3481 32.7917 18.4283 32.7737 18.5097 32.7717H18.5253C18.8601 32.7717 19.1361 33.0387 19.1445 33.3753L19.3383 41.1369C19.3403 41.2182 19.3264 41.2992 19.2971 41.3751C19.2679 41.451 19.224 41.5204 19.168 41.5794C19.1119 41.6383 19.0448 41.6857 18.9705 41.7187C18.8961 41.7517 18.816 41.7697 18.7347 41.7717L18.7185 41.7723Z" fill="#FA7436"/>
</g>
</g>
</svg>
