<svg width="65" height="58" viewBox="0 0 65 58" fill="none" xmlns="http://www.w3.org/2000/svg">
<g id="SVG">
<g id="Group">
<path id="Vector" d="M48.9585 37.9718C52.6714 33.9656 54.9451 28.6075 54.9451 22.7276C54.945 10.3503 44.8753 0.280518 32.4979 0.280518C20.1204 0.280518 10.0508 10.3503 10.0508 22.7276C10.0508 29.0606 12.6879 34.7887 16.9206 38.8737L11.3883 50.7564C11.3174 50.9087 11.2896 51.0776 11.3078 51.2446C11.3261 51.4116 11.3898 51.5704 11.4921 51.7038C11.5943 51.8372 11.7311 51.94 11.8876 52.001C12.0442 52.0621 12.2144 52.0791 12.38 52.0502L19.1691 50.8639L22.6319 56.8229C22.7163 56.9682 22.8389 57.0876 22.9864 57.1681C23.1339 57.2486 23.3006 57.2872 23.4685 57.2795C23.6363 57.2719 23.7989 57.2184 23.9385 57.1249C24.0781 57.0314 24.1894 56.9013 24.2603 56.749L29.7285 45.0038C30.6362 45.116 31.5603 45.1747 32.4979 45.1747C33.8465 45.1747 35.1676 45.0549 36.4513 44.8259L40.5784 54.408C40.6449 54.5623 40.7523 54.6955 40.8892 54.793C41.026 54.8905 41.1869 54.9487 41.3545 54.9611C41.5221 54.9736 41.6899 54.9399 41.8396 54.8637C41.9894 54.7875 42.1154 54.6717 42.2039 54.5288L45.838 48.6728L52.5897 50.0555C52.7543 50.0894 52.9251 50.0775 53.0833 50.021C53.2416 49.9645 53.3813 49.8656 53.4872 49.7351C53.5933 49.6048 53.6616 49.4479 53.6847 49.2816C53.7079 49.1152 53.685 48.9456 53.6186 48.7913L48.9585 37.9718ZM23.3368 54.3761L20.437 49.386C20.3425 49.2235 20.2005 49.0939 20.0301 49.0146C19.8597 48.9353 19.6691 48.91 19.4839 48.9423L13.7986 49.9358L18.3564 40.1462C21.0693 42.3529 24.3052 43.9397 27.8469 44.6888L23.3368 54.3761ZM11.8895 22.7276C11.8895 11.3641 21.1344 2.11922 32.4979 2.11922C43.8614 2.11922 53.1063 11.3641 53.1063 22.7276C53.1063 34.0911 43.8614 43.336 32.4979 43.336C21.1344 43.336 11.8895 34.0911 11.8895 22.7276ZM45.5791 46.7432C45.3949 46.7054 45.2036 46.7249 45.0309 46.7993C44.8582 46.8737 44.7126 46.9993 44.6135 47.1591L41.5704 52.0629L38.2781 44.4189C41.7785 43.4853 44.9453 41.7259 47.5549 39.3613L51.233 47.9011L45.5791 46.7432ZM47.9487 29.0542C47.9047 28.6862 47.8637 28.3588 47.8268 28.0649C47.6769 26.8704 47.6018 26.2711 47.6854 25.797C47.7691 25.3229 48.0447 24.7852 48.594 23.7142C48.7291 23.4505 48.8797 23.1569 49.0468 22.8263C49.9182 21.1024 49.5574 19.0559 48.1489 17.734C47.8787 17.4804 47.6368 17.2561 47.4196 17.0545C46.5372 16.2358 46.0942 15.825 45.8535 15.4081C45.6129 14.9912 45.4784 14.4022 45.2108 13.2286C45.1448 12.9397 45.0715 12.6182 44.9869 12.2573C44.5464 10.3766 42.9545 9.0409 41.0258 8.93356C40.6559 8.91288 40.3264 8.89656 40.0305 8.88185C38.8282 8.82198 38.2247 8.79198 37.7723 8.6273C37.32 8.46251 36.8384 8.09776 35.8789 7.37078C35.6143 7.16987 35.3491 6.9698 35.0832 6.77056C33.5367 5.6131 31.4589 5.6131 29.9123 6.77056C29.6156 6.99258 29.3527 7.19185 29.1165 7.37078C28.1571 8.09764 27.6754 8.46251 27.2231 8.6273C26.7707 8.79198 26.1672 8.82186 24.9651 8.88185C24.6691 8.89656 24.3397 8.91299 23.9698 8.93356C22.0411 9.0409 20.4492 10.3766 20.0086 12.2573C19.9241 12.6181 19.8507 12.9397 19.7849 13.2285C19.5171 14.4021 19.3827 14.9911 19.142 15.4081C18.9014 15.825 18.4584 16.2358 17.576 17.0544C17.3322 17.2802 17.0891 17.5067 16.8466 17.734C15.4382 19.0559 15.0773 21.1024 15.9488 22.8263C16.116 23.1569 16.2664 23.4505 16.4015 23.7142C16.9509 24.7852 17.2265 25.3229 17.3101 25.797C17.3938 26.2711 17.3185 26.8705 17.1687 28.0649C17.1319 28.359 17.0908 28.6862 17.0468 29.0542C16.8175 30.9721 17.8565 32.7717 19.6323 33.5323C19.9729 33.6782 20.2769 33.8063 20.55 33.9214C21.6592 34.3887 22.216 34.6234 22.5848 34.9329C22.9535 35.2424 23.2813 35.7498 23.9342 36.7611C24.0949 37.01 24.2739 37.2871 24.4768 37.5973C25.2935 38.8461 26.6445 39.5543 28.0694 39.5542C28.4889 39.5542 28.9152 39.4927 29.3358 39.3657C29.6904 39.2584 30.0056 39.1612 30.2887 39.0739C31.4389 38.7189 32.0163 38.5408 32.4977 38.5408C32.979 38.5408 33.5564 38.7189 34.7067 39.0739C34.9898 39.1612 35.3051 39.2584 35.6596 39.3657C37.5086 39.9245 39.4614 39.2138 40.5186 37.5972C40.7215 37.287 40.9004 37.0099 41.0612 36.761C41.7141 35.7497 42.0419 35.2421 42.4107 34.9328C42.7794 34.6234 43.3362 34.3887 44.4454 33.9213C44.7185 33.8062 45.0225 33.6781 45.3632 33.5321C47.139 32.7717 48.178 30.9721 47.9487 29.0542ZM46.9579 22.875C45.6933 25.3412 45.6576 25.5438 46.0025 28.2936C46.0389 28.5843 46.0796 28.9083 46.123 29.2723C46.2567 30.3901 45.6742 31.3988 44.6394 31.842C44.3023 31.9864 44.0016 32.113 43.7314 32.2269C41.1776 33.3031 41.02 33.4354 39.5167 35.7635C39.3387 36.0398 39.1598 36.3155 38.98 36.5907C38.3639 37.5328 37.2694 37.9312 36.1917 37.6054C35.8409 37.4994 35.529 37.4032 35.2489 37.3168C32.6007 36.4996 32.395 36.4995 29.7467 37.3168C29.4667 37.4032 29.1548 37.4994 28.8039 37.6054C27.7261 37.9315 26.6318 37.5328 26.0157 36.5907C25.815 36.284 25.6379 36.0097 25.479 35.7635C23.9756 33.4353 23.8181 33.3031 21.2642 32.2269C20.994 32.1131 20.6933 31.9864 20.3562 31.842C19.3214 31.3988 18.739 30.39 18.8726 29.2723C18.9161 28.9083 18.9568 28.5844 18.9933 28.2936C19.3382 25.5437 19.3024 25.3412 18.0379 22.875C17.9041 22.6142 17.7553 22.3238 17.5899 21.9966C17.0821 20.992 17.2842 19.845 18.1051 19.0745C18.3725 18.8236 18.6118 18.6017 18.8267 18.4023C20.8583 16.5175 20.9612 16.3394 21.5776 13.6373C21.6428 13.3516 21.7154 13.0334 21.7989 12.6764C22.0557 11.5803 22.9479 10.8316 24.0719 10.7691C24.4379 10.7488 24.7638 10.7326 25.0565 10.718C27.8246 10.5802 28.0179 10.5098 30.227 8.83623C30.4606 8.65925 30.7208 8.46216 31.0143 8.24244C31.4649 7.90515 31.9814 7.73657 32.4979 7.73657C33.0143 7.73657 33.5308 7.90527 33.9815 8.24244C34.275 8.46205 34.535 8.65925 34.7687 8.83623C36.9778 10.5098 37.1711 10.5802 39.9391 10.718C40.2318 10.7326 40.5578 10.7489 40.9237 10.7691C42.0478 10.8316 42.94 11.5803 43.1967 12.6764C43.2804 13.0334 43.3529 13.3517 43.4182 13.6374C44.0346 16.3394 44.1374 16.5175 46.1692 18.4023C46.3841 18.6017 46.6234 18.8237 46.8907 19.0745C47.7115 19.845 47.9137 20.992 47.4058 21.9966C47.2575 22.2899 47.1082 22.5827 46.9579 22.875ZM40.3851 19.6622L35.4686 19.4225L33.7215 14.8208C33.5272 14.3089 33.0468 13.978 32.4979 13.978C31.9488 13.978 31.4684 14.3089 31.2742 14.8208L29.5271 19.4225L24.6108 19.6622C24.0628 19.6888 23.5991 20.0431 23.4295 20.5649C23.2599 21.0868 23.4266 21.646 23.8543 21.9898L27.6908 25.0734L26.3995 29.8233C26.2556 30.3526 26.4495 30.903 26.8933 31.2255C27.1164 31.3888 27.3856 31.4771 27.6621 31.4776C27.9104 31.4776 28.1593 31.4058 28.3794 31.2617L32.4979 28.566L36.6162 31.2619C37.0753 31.5624 37.6587 31.548 38.1026 31.2257C38.5464 30.9031 38.7402 30.3527 38.5962 29.8235L37.3049 25.0737L41.1416 21.99C41.5692 21.6462 41.7359 21.087 41.5662 20.5652C41.3966 20.0433 40.9329 19.6889 40.3851 19.6622ZM32.0026 15.4736C32.0026 15.4734 32.0026 15.4734 32.0026 15.4736V15.4736ZM35.8827 23.8577C35.6841 24.0172 35.5364 24.2311 35.4577 24.4733C35.379 24.7156 35.3727 24.9755 35.4396 25.2212L36.4558 28.9593L33.2147 26.8378C33.0017 26.6982 32.7525 26.6239 32.4978 26.6239C32.2431 26.6239 31.994 26.6982 31.7809 26.8377L28.5397 28.9593L29.5562 25.2208C29.6229 24.9751 29.6165 24.7153 29.5377 24.4732C29.459 24.2311 29.3114 24.0172 29.1129 23.8577L26.0936 21.4308L29.9624 21.2421C30.2169 21.2299 30.4622 21.1436 30.6684 20.9939C30.8745 20.8442 31.0325 20.6376 31.1229 20.3994L32.4979 16.778L33.8729 20.3997C33.9633 20.6378 34.1212 20.8443 34.3272 20.994C34.5333 21.1437 34.7785 21.2299 35.0329 21.2423L38.9021 21.431L35.8827 23.8577Z" fill="#FA7436"/>
</g>
</g>
</svg>
