<svg width="66" height="68" viewBox="0 0 66 68" fill="none" xmlns="http://www.w3.org/2000/svg">
<g id="Group 7">
<rect id="Rectangle 21" y="0.549316" width="65.2051" height="66.5924" rx="13" fill="#F0BB1F"/>
<g id="selection 1">
<g id="Group">
<g id="Group_2">
<path id="Vector" d="M18.791 24.794C18.3796 24.794 18.043 24.4574 18.0355 24.0459V19.3405C18.0355 18.9216 18.3721 18.585 18.791 18.585H23.4964C23.9079 18.585 24.2445 18.9216 24.2445 19.3405V20.9788H42.348V19.3405C42.348 18.9291 42.6846 18.5924 43.096 18.585H47.8014C48.2129 18.585 48.5495 18.9216 48.557 19.3405V24.0459C48.557 24.4574 48.2204 24.794 47.8014 24.794H46.1632V42.8974H47.8014C48.2129 42.8974 48.5495 43.2341 48.557 43.6455V48.3509C48.557 48.7624 48.2204 49.099 47.8014 49.1065H43.096C42.6846 49.1065 42.348 48.7698 42.348 48.3509V46.7126H24.2445V48.3509C24.2445 48.7624 23.9079 49.099 23.4964 49.1065H18.791C18.3796 49.1065 18.043 48.7698 18.0355 48.3509V43.6455C18.0355 43.2341 18.3721 42.8974 18.791 42.8974H20.4293V24.794H18.791ZM47.0609 23.2978V20.0811H43.8441V23.2978H47.0609ZM43.8441 47.6103H47.0609V44.3936H43.8441V47.6103ZM24.2445 43.6455V45.2165H42.348V43.6455C42.348 43.2341 42.6846 42.8974 43.096 42.8974H44.667V24.794H43.096C42.6846 24.794 42.348 24.4574 42.348 24.0459V22.475H24.2445V24.0459C24.2445 24.4574 23.9079 24.794 23.4964 24.794H21.9255V42.8974H23.4964C23.9079 42.8974 24.2445 43.2341 24.2445 43.6455ZM19.5316 44.3936V47.6103H22.7484V44.3936H19.5316ZM22.7484 23.2978V20.0811H19.5316V23.2978H22.7484Z" fill="white"/>
</g>
</g>
</g>
</g>
</svg>
