<svg width="65" height="58" viewBox="0 0 65 58" fill="none" xmlns="http://www.w3.org/2000/svg">
<g id="SVG">
<g id="Group">
<path id="Vector" d="M48.3777 50.7882C48.2951 50.716 48.1992 50.6608 48.0953 50.6257C47.9914 50.5906 47.8816 50.5763 47.7722 50.5836C47.6628 50.591 47.5559 50.6198 47.4577 50.6684C47.3594 50.7171 47.2717 50.7846 47.1995 50.8671L43.7571 54.8041C43.3925 55.2215 42.8864 55.4616 42.3322 55.4803C41.7765 55.5002 41.2568 55.2938 40.8648 54.9022L38.2117 52.2503V50.4965C38.2117 50.0354 37.838 49.6615 37.3768 49.6615C36.9156 49.6615 36.5418 50.0354 36.5418 50.4965V56.9455C36.5418 57.4066 36.9156 57.7805 37.3768 57.7805C37.838 57.7805 38.2117 57.4066 38.2117 56.9455V54.6114L39.6844 56.0834C40.3677 56.7661 41.3028 57.1514 42.2664 57.1514C43.3136 57.1514 44.3257 56.6919 45.0145 55.9032L48.4567 51.9664C48.5289 51.8838 48.5841 51.7879 48.6192 51.684C48.6543 51.5801 48.6685 51.4703 48.6612 51.3609C48.6539 51.2515 48.625 51.1446 48.5764 51.0464C48.5278 50.9481 48.4602 50.8604 48.3777 50.7882ZM13.7014 49.6615C13.48 49.6615 13.2676 49.7495 13.111 49.9061C12.9544 50.0627 12.8665 50.2751 12.8665 50.4965V56.9455C12.8665 57.4066 13.2402 57.7805 13.7014 57.7805C14.1626 57.7805 14.5364 57.4066 14.5364 56.9455V50.4965C14.5364 50.2751 14.4484 50.0627 14.2918 49.9061C14.1352 49.7495 13.9229 49.6615 13.7014 49.6615ZM59.943 14.0176L54.3464 9.47035C53.9593 9.15596 53.4393 9.09361 52.9889 9.30803C52.5386 9.52234 52.2588 9.96531 52.2588 10.4641V21.1962L52.2591 21.2007V34.7434L43.8521 44.3316L41.1888 39.3591C39.9176 36.9842 37.5714 35.3057 34.9122 34.8691C33.8156 34.689 31.2561 34.2705 30.3337 34.1188C30.0011 34.0652 29.6986 33.8947 29.4805 33.638C29.2624 33.3813 29.143 33.0552 29.1438 32.7183V31.7316C29.8022 31.3172 30.4122 30.8304 30.9624 30.2804C32.9199 28.3217 33.9979 25.7185 33.9979 22.9504V22.5874H34.3196C35.9716 22.595 37.3767 21.1902 37.3767 19.5304C37.3767 18.6498 36.9899 17.8313 36.3627 17.2626C36.8481 16.5703 36.9857 15.6605 36.7095 14.8617C36.5906 14.5197 36.4029 14.2056 36.158 13.9389C35.913 13.6722 35.616 13.4586 35.2853 13.3111C35.1976 13.2722 35.1091 13.2348 35.021 13.1967V7.18634C35.021 3.65423 32.1473 0.780518 28.6151 0.780518H18.6524C15.1203 0.780518 12.2466 3.65423 12.2466 7.18634V13.1967C12.1586 13.2348 12.0704 13.2722 11.9828 13.311C11.652 13.4585 11.355 13.6722 11.11 13.9389C10.865 14.2056 10.6773 14.5197 10.5585 14.8618C10.2787 15.671 10.4161 16.5667 10.9037 17.2636C10.2771 17.8318 9.89087 18.6498 9.89087 19.5304C9.89087 21.1857 11.2798 22.5969 12.949 22.5874H13.2708V22.9504C13.2708 26.6428 15.211 29.8899 18.1248 31.7268V32.8886C18.1251 33.1998 18.021 33.5021 17.8291 33.7471C17.6373 33.9921 17.3687 34.1657 17.0665 34.2399L10.133 35.9499C8.50072 36.3498 7.05005 37.2863 6.0137 38.6093C4.97735 39.9322 4.41539 41.5649 4.41798 43.2455V56.9455C4.41798 57.4066 4.79171 57.7805 5.25294 57.7805C5.71417 57.7805 6.0879 57.4066 6.0879 56.9455V43.2455C6.08589 41.9384 6.52295 40.6686 7.32897 39.6396C8.135 38.6107 9.26327 37.8823 10.5328 37.5713L15.9035 36.2468C17.5639 38.9097 20.4688 40.5384 23.634 40.5384C26.9182 40.5384 29.8828 38.8163 31.5131 36.0043L34.6419 36.5169C36.7918 36.87 38.6888 38.227 39.7166 40.1473L42.4115 45.1787C42.5352 45.41 42.7131 45.6079 42.9301 45.7553C43.147 45.9028 43.3964 45.9954 43.657 46.0254C43.9179 46.0553 44.1822 46.0216 44.4272 45.927C44.6722 45.8325 44.8906 45.68 45.0638 45.4825L50.7821 38.9607L54.4143 42.5942C54.4178 42.5976 54.4215 42.6005 54.4249 42.6038L49.7687 47.929C49.6261 48.0961 49.555 48.3127 49.5711 48.5319C49.5871 48.7511 49.6888 48.9551 49.8542 49.0997C50.0197 49.2443 50.2354 49.318 50.4548 49.3046C50.6741 49.2912 50.8793 49.1919 51.0259 49.0282L58.7001 40.2515C60.2709 38.4698 59.9954 35.6205 58.1563 34.1503C56.9208 33.1626 55.3028 32.9744 53.9289 33.5281V21.5933L59.943 16.7069C60.1433 16.5447 60.3048 16.3398 60.4155 16.1071C60.5263 15.8744 60.5835 15.6198 60.583 15.3621C60.583 14.8381 60.3497 14.348 59.943 14.0176ZM35.7067 19.5304C35.7067 20.2829 35.0727 20.9213 34.3196 20.9175H33.9979V18.3837C34.3122 18.4061 34.6279 18.3725 34.9305 18.2844C35.3969 18.5145 35.7067 18.9979 35.7067 19.5304ZM13.2708 20.9175H12.949C12.1916 20.9214 11.5608 20.284 11.5608 19.5304C11.5608 18.9983 11.8698 18.5158 12.3351 18.2861C12.6386 18.3744 12.9554 18.4081 13.2707 18.3857L13.2708 20.9175ZM13.4775 16.6392C12.9991 16.8513 12.4451 16.6437 12.1961 16.1798C11.9338 15.6911 12.1538 15.0623 12.6604 14.8374C17.2474 12.8007 22.3109 12.0812 27.2838 12.7593C27.7399 12.8208 28.1615 12.5014 28.2236 12.0446C28.2384 11.9359 28.2316 11.8254 28.2037 11.7194C28.1758 11.6133 28.1273 11.5138 28.0609 11.4265C27.9945 11.3392 27.9116 11.2659 27.8168 11.2107C27.7221 11.1554 27.6174 11.1194 27.5088 11.1046C22.9288 10.4804 18.2658 10.9715 13.9164 12.5361V7.18634C13.9164 4.57491 16.0409 2.45044 18.6523 2.45044H28.6151C31.2266 2.45044 33.351 4.57491 33.351 7.18634V12.5357C32.713 12.3062 32.0671 12.0993 31.4144 11.9155C31.2017 11.857 30.9744 11.885 30.7823 11.9935C30.5902 12.1019 30.4488 12.282 30.3891 12.4944C30.3293 12.7068 30.356 12.9341 30.4634 13.1269C30.5707 13.3196 30.75 13.462 30.9621 13.523C32.207 13.8737 33.4253 14.3129 34.6076 14.8373C35.1099 15.0603 35.3312 15.6897 35.0736 16.1764C34.8291 16.6382 34.2804 16.8562 33.7903 16.6391C27.5595 13.8799 19.7913 13.8399 13.4775 16.6392ZM14.9407 22.9504V17.8365C20.5118 15.6084 26.7573 15.6085 32.3281 17.8368V22.9504C32.3281 25.2727 31.4236 27.4567 29.7814 29.0999C28.1526 30.7299 25.9582 31.6472 23.6344 31.6472C18.8406 31.6473 14.9407 27.7458 14.9407 22.9504ZM23.634 38.8685C21.2335 38.8685 19.0165 37.7206 17.6258 35.8147C18.9872 35.3918 19.9312 34.0302 19.7946 32.5793C21.0157 33.068 22.3191 33.3185 23.6343 33.3172C24.9713 33.3172 26.2685 33.0635 27.4739 32.5828C27.3884 34.0213 28.3796 35.3205 29.7324 35.6931C28.3519 37.6753 26.1037 38.8685 23.634 38.8685ZM57.1133 35.4542C58.2322 36.3486 58.3973 38.0718 57.4429 39.1523L55.5263 41.3442L51.8856 37.7023L53.5817 35.768C54.0163 35.2704 54.6263 34.9599 55.2844 34.9014C55.9425 34.8429 56.5977 35.041 57.1133 35.4542ZM58.8899 15.4108L53.9289 19.4416L53.9286 11.2826L58.8898 15.3137C58.9151 15.3294 58.9158 15.3945 58.8899 15.4108ZM28.2313 22.3179C28.4527 22.3179 28.6651 22.2299 28.8217 22.0734C28.9783 21.9168 29.0662 21.7044 29.0662 21.483V19.6434C29.0662 19.1822 28.6925 18.8084 28.2313 18.8084C27.7701 18.8084 27.3963 19.1822 27.3963 19.6434V21.483C27.3963 21.7044 27.4843 21.9168 27.6409 22.0734C27.7975 22.2299 28.0098 22.3179 28.2313 22.3179ZM19.0367 18.8085C18.8153 18.8085 18.6029 18.8965 18.4463 19.0531C18.2897 19.2097 18.2017 19.422 18.2017 19.6435V21.4831C18.2017 21.9442 18.5755 22.318 19.0367 22.318C19.4979 22.318 19.8717 21.9442 19.8717 21.4831V19.6435C19.8717 19.422 19.7837 19.2097 19.6271 19.0531C19.4705 18.8965 19.2581 18.8085 19.0367 18.8085ZM26.2049 26.4702C26.0984 26.2761 25.9191 26.1322 25.7065 26.0703C25.4939 26.0083 25.2654 26.0333 25.0712 26.1398C24.621 26.3856 24.1156 26.5126 23.6027 26.5086C23.1109 26.5029 22.6281 26.3762 22.1967 26.1398C22.0028 26.0361 21.7758 26.0131 21.565 26.0757C21.3542 26.1384 21.1766 26.2816 21.0708 26.4744C20.965 26.6672 20.9395 26.894 20.9999 27.1054C21.0603 27.3169 21.2016 27.496 21.3933 27.6039C21.8609 27.8605 22.6207 28.1684 23.5852 28.1786C24.5597 28.1887 25.3928 27.8682 25.8745 27.604C26.0686 27.4975 26.2125 27.3182 26.2745 27.1055C26.3364 26.8929 26.3114 26.6644 26.2049 26.4702Z" fill="#FA7436"/>
</g>
</g>
</svg>
