<svg width="66" height="68" viewBox="0 0 66 68" fill="none" xmlns="http://www.w3.org/2000/svg">
<g id="Group 12">
<rect id="Rectangle 21" y="0.931641" width="65.2051" height="66.5924" rx="13" fill="#F15A2B"/>
<g id="water-sport 1">
<path id="Vector" d="M45.5303 45.2273C44.9058 45.2401 44.2923 45.0614 43.7723 44.7153C43.3853 44.4624 42.933 44.3277 42.4706 44.3277C42.0083 44.3277 41.556 44.4624 41.1689 44.7153C40.6437 45.0497 40.0339 45.2274 39.4112 45.2274C38.7885 45.2274 38.1787 45.0497 37.6535 44.7153C37.2664 44.4622 36.814 44.3273 36.3515 44.3273C35.8891 44.3273 35.4366 44.4622 35.0496 44.7153C34.5243 45.0497 33.9146 45.2274 33.2919 45.2274C32.6692 45.2274 32.0594 45.0497 31.5342 44.7153C31.1474 44.4623 30.6953 44.3276 30.2331 44.3276C29.771 44.3276 29.3189 44.4623 28.9321 44.7153C28.4559 45.0318 27.9001 45.2077 27.3285 45.2228L27.297 44.3229C27.7192 44.3129 28.1292 44.1793 28.4763 43.9387C29.0014 43.6044 29.6111 43.4268 30.2336 43.4268C30.8561 43.4268 31.4657 43.6044 31.9909 43.9387C32.3779 44.1917 32.8302 44.3264 33.2926 44.3264C33.7549 44.3264 34.2073 44.1917 34.5943 43.9387C35.1196 43.604 35.7296 43.4263 36.3524 43.4263C36.9753 43.4263 37.5853 43.604 38.1106 43.9387C38.4976 44.1917 38.95 44.3264 39.4123 44.3264C39.8747 44.3264 40.327 44.1917 40.714 43.9387C41.2393 43.6044 41.8491 43.4268 42.4717 43.4268C43.0944 43.4268 43.7042 43.6044 44.2295 43.9387C44.6174 44.1923 45.0708 44.3273 45.5343 44.3273C45.9978 44.3273 46.4512 44.1923 46.8392 43.9387C47.3586 43.5936 47.9709 43.4152 48.5944 43.4275V44.3274C48.1302 44.3147 47.674 44.4505 47.2923 44.7149C46.771 45.0615 46.1561 45.2403 45.5303 45.2273Z" fill="white"/>
<path id="Vector_2" d="M21.0576 45.2276C20.4332 45.2405 19.8198 45.0618 19.3001 44.7155C18.9184 44.4509 18.4622 44.315 17.9979 44.3277V43.4278C18.6225 43.4148 19.236 43.5935 19.7559 43.9398C20.1374 44.2045 20.5934 44.3404 21.0576 44.3277C21.5219 44.3404 21.9782 44.2044 22.3597 43.9394C22.8785 43.5932 23.491 43.4147 24.1145 43.4278C24.7229 43.4141 25.3213 43.5846 25.8311 43.9169L25.3771 44.6935C25.0047 44.4428 24.5632 44.3149 24.1145 44.3277C23.6521 44.3152 23.1978 44.4508 22.8178 44.7146C22.2974 45.0618 21.683 45.2409 21.0576 45.2276Z" fill="white"/>
<path id="Vector_3" d="M45.5316 42.0776C44.9067 42.0903 44.2928 41.9117 43.7723 41.5655C43.385 41.3124 42.9323 41.1776 42.4695 41.1776C42.0068 41.1776 41.5541 41.3124 41.1667 41.5655C40.6415 41.8999 40.0318 42.0774 39.4092 42.0774C38.7866 42.0774 38.1769 41.8999 37.6517 41.5655C37.2648 41.3126 36.8127 41.1778 36.3504 41.1778C35.8882 41.1778 35.436 41.3126 35.0492 41.5655C34.524 41.9 33.9143 42.0776 33.2917 42.0776C32.6691 42.0776 32.0594 41.9 31.5342 41.5655C31.1473 41.3126 30.6951 41.1778 30.2329 41.1778C29.7707 41.1778 29.3185 41.3126 28.9317 41.5655C28.412 41.9118 27.7986 42.0905 27.1742 42.0776C26.5498 42.0905 25.9364 41.9118 25.4167 41.5655C25.0353 41.3009 24.5794 41.165 24.1154 41.1777C23.6516 41.1651 23.1958 41.301 22.8146 41.5655C22.2957 41.9114 21.6833 42.0901 21.0598 42.0776C20.4353 42.0906 19.8218 41.9119 19.3019 41.5655C18.9198 41.3004 18.4628 41.1645 17.9979 41.1777V40.2778C18.6223 40.2649 19.2357 40.4436 19.7554 40.7898C20.1371 41.0544 20.5933 41.1903 21.0576 41.1777C21.5214 41.1903 21.9772 41.0544 22.3584 40.7898C22.8773 40.4439 23.4897 40.2652 24.1132 40.2778C24.738 40.2645 25.3519 40.4432 25.872 40.7898C26.2535 41.0545 26.7096 41.1904 27.1737 41.1777C27.6379 41.1904 28.0939 41.0545 28.4754 40.7898C29.0006 40.4554 29.6103 40.2777 30.2329 40.2777C30.8556 40.2777 31.4653 40.4554 31.9904 40.7898C32.3773 41.0428 32.8296 41.1776 33.2919 41.1776C33.7542 41.1776 34.2065 41.0428 34.5934 40.7898C35.1185 40.4554 35.7283 40.2777 36.3509 40.2777C36.9735 40.2777 37.5832 40.4554 38.1084 40.7898C38.4953 41.0428 38.9476 41.1776 39.4099 41.1776C39.8722 41.1776 40.3244 41.0428 40.7113 40.7898C41.237 40.4555 41.8472 40.2779 42.4702 40.2779C43.0932 40.2779 43.7033 40.4555 44.229 40.7898C44.6166 41.0428 45.0695 41.1775 45.5323 41.1775C45.9952 41.1775 46.448 41.0428 46.8356 40.7898C47.3559 40.4438 47.9697 40.2651 48.5944 40.2778V41.1777C48.1293 41.1645 47.6721 41.3004 47.2896 41.5655C46.7695 41.9114 46.1561 42.0901 45.5316 42.0776Z" fill="white"/>
<path id="Vector_4" d="M45.5303 38.9285C44.9058 38.9412 44.2923 38.7626 43.7723 38.4164C43.3906 38.1518 42.9344 38.0159 42.4702 38.0286C42.1295 38.0169 41.7911 38.0895 41.4852 38.2401L41.0884 37.4302C41.5179 37.2196 41.9919 37.1157 42.4702 37.1273C43.0954 37.1146 43.7096 37.2938 44.2299 37.6407C44.6179 37.8943 45.0713 38.0294 45.5348 38.0294C45.9983 38.0294 46.4517 37.8943 46.8396 37.6407C47.3588 37.2954 47.971 37.1167 48.5944 37.1287V38.0286C48.1302 38.0159 47.6741 38.1516 47.2923 38.416C46.771 38.7626 46.1561 38.9415 45.5303 38.9285Z" fill="white"/>
<path id="Vector_5" d="M39.4065 38.9281C38.783 38.9412 38.1705 38.7627 37.6517 38.4166C37.2647 38.1634 36.8122 38.0286 36.3498 38.0286C35.8873 38.0286 35.4349 38.1634 35.0478 38.4166C34.5226 38.751 33.9128 38.9286 33.2901 38.9286C32.6674 38.9286 32.0577 38.751 31.5324 38.4166C31.1454 38.1636 30.693 38.0288 30.2307 38.0288C29.7683 38.0288 29.316 38.1636 28.929 38.4166C28.4093 38.7623 27.7964 38.9408 27.1724 38.9281C26.548 38.9411 25.9346 38.7624 25.4149 38.4161C25.0332 38.1515 24.577 38.0156 24.1127 38.0283C23.6503 38.0158 23.196 38.1514 22.816 38.4152C22.2961 38.7621 21.6824 38.9411 21.0576 38.9281C20.4332 38.9411 19.8198 38.7624 19.3001 38.4161C18.9184 38.1515 18.4622 38.0156 17.9979 38.0283V37.1284C18.6225 37.1154 19.236 37.2941 19.7559 37.6404C20.1374 37.9051 20.5934 38.041 21.0576 38.0283C21.5219 38.041 21.9782 37.905 22.3597 37.6399C22.8785 37.2938 23.491 37.1153 24.1145 37.1284C24.7389 37.1155 25.3523 37.2942 25.872 37.6404C26.2535 37.9051 26.7096 38.041 27.1737 38.0283C27.638 38.0409 28.0942 37.905 28.4759 37.6404C29.0011 37.306 29.6109 37.1284 30.2336 37.1284C30.8563 37.1284 31.4661 37.306 31.9913 37.6404C32.3783 37.8934 32.8307 38.0281 33.293 38.0281C33.7554 38.0281 34.2077 37.8934 34.5947 37.6404C35.1201 37.3057 35.73 37.128 36.3529 37.128C36.9758 37.128 37.5857 37.3057 38.1111 37.6404C38.5075 37.907 38.9776 38.0425 39.4551 38.0278C39.4898 38.0282 39.5245 38.0264 39.559 38.0224L39.6787 38.9142C39.5884 38.9247 39.4974 38.9294 39.4065 38.9281Z" fill="white"/>
<path id="Vector_6" d="M45.5316 35.7775C44.9067 35.7903 44.2928 35.6116 43.7723 35.2655C43.385 35.0124 42.9323 34.8775 42.4695 34.8775C42.0068 34.8775 41.5541 35.0124 41.1667 35.2655C40.6415 35.5998 40.0318 35.7774 39.4092 35.7774C38.7866 35.7774 38.1769 35.5998 37.6517 35.2655C37.2648 35.0125 36.8127 34.8778 36.3504 34.8778C35.8882 34.8778 35.436 35.0125 35.0492 35.2655C34.524 35.5999 33.9143 35.7776 33.2917 35.7776C32.6691 35.7776 32.0594 35.5999 31.5342 35.2655C31.1473 35.0125 30.6951 34.8778 30.2329 34.8778C29.7707 34.8778 29.3185 35.0125 28.9317 35.2655C28.412 35.6118 27.7986 35.7905 27.1742 35.7775C26.5498 35.7905 25.9364 35.6118 25.4167 35.2655C25.0353 35.0009 24.5794 34.865 24.1154 34.8776C23.6516 34.865 23.1958 35.0009 22.8146 35.2655C22.2957 35.6114 21.6833 35.7901 21.0598 35.7775C20.4353 35.7905 19.8218 35.6118 19.3019 35.2655C18.9198 35.0003 18.4628 34.8644 17.9979 34.8776V33.9777C18.6223 33.9648 19.2357 34.1435 19.7554 34.4898C20.1371 34.7544 20.5933 34.8903 21.0576 34.8776C21.5214 34.8902 21.9772 34.7543 22.3584 34.4898C22.8773 34.1439 23.4897 33.9652 24.1132 33.9777C24.738 33.9645 25.3519 34.1432 25.872 34.4898C26.2535 34.7545 26.7096 34.8904 27.1737 34.8776C27.6379 34.8904 28.0939 34.7545 28.4754 34.4898C29.0006 34.1553 29.6103 33.9776 30.2329 33.9776C30.8556 33.9776 31.4653 34.1553 31.9904 34.4898C32.3773 34.7428 32.8296 34.8775 33.2919 34.8775C33.7542 34.8775 34.2065 34.7428 34.5934 34.4898C35.1185 34.1553 35.7283 33.9776 36.3509 33.9776C36.9735 33.9776 37.5832 34.1553 38.1084 34.4898C38.4953 34.7428 38.9476 34.8775 39.4099 34.8775C39.8722 34.8775 40.3244 34.7428 40.7113 34.4898C41.237 34.1554 41.8472 33.9779 42.4702 33.9779C43.0932 33.9779 43.7033 34.1554 44.229 34.4898C44.6166 34.7427 45.0695 34.8774 45.5323 34.8774C45.9952 34.8774 46.448 34.7427 46.8356 34.4898C47.3559 34.1437 47.9697 33.9651 48.5944 33.9777V34.8776C48.1293 34.8645 47.6721 35.0004 47.2896 35.2655C46.7695 35.6114 46.1561 35.79 45.5316 35.7775Z" fill="white"/>
<path id="Vector_7" d="M39.1199 35.3962L38.2708 35.0984C38.4895 34.4701 38.5788 33.8041 38.5335 33.1404C38.4881 32.4767 38.3089 31.8291 38.0067 31.2364L34.916 25.1842C34.8855 25.1244 34.8687 25.0586 34.867 24.9915C34.8652 24.9244 34.8784 24.8578 34.9057 24.7965C34.933 24.7352 34.9737 24.6808 35.0248 24.6372C35.0758 24.5937 35.136 24.5621 35.2008 24.5448L41.3602 22.9025C41.5609 22.85 41.7328 22.7204 41.8384 22.5418C41.944 22.3632 41.9749 22.1502 41.9242 21.949C41.8736 21.7478 41.7455 21.5748 41.5679 21.4675C41.3903 21.3602 41.1776 21.3275 40.9759 21.3763L33.5212 23.1581C33.3618 23.1957 33.2132 23.2696 33.087 23.3739C32.9608 23.4782 32.8602 23.6101 32.7932 23.7595C32.7261 23.9089 32.6944 24.0718 32.7004 24.2354C32.7064 24.399 32.75 24.5591 32.8278 24.7032L35.0415 28.8157C35.0977 28.9202 35.1103 29.0427 35.0766 29.1565C35.0429 29.2702 34.9656 29.3661 34.8616 29.4231L32.0044 30.998L31.5702 30.2097L34.0368 28.8499L32.0363 25.1297C31.8932 24.8642 31.8131 24.5692 31.8022 24.2678C31.7913 23.9663 31.8498 23.6663 31.9734 23.3911C32.0969 23.1159 32.2821 22.8727 32.5146 22.6805C32.7471 22.4883 33.0207 22.3521 33.3142 22.2825L40.7653 20.5011C41.1991 20.3915 41.6587 20.4587 42.0429 20.6879C42.4271 20.9172 42.7046 21.2896 42.8142 21.7234C42.9238 22.1572 42.8566 22.6167 42.6274 23.001C42.3981 23.3852 42.0257 23.6626 41.5919 23.7722L35.9702 25.2706L38.8085 30.8265C39.1659 31.5279 39.3777 32.2942 39.4312 33.0796C39.4848 33.8649 39.3788 34.6529 39.1199 35.3962Z" fill="white"/>
<path id="Vector_8" d="M29.9975 31.084L24.5297 34.0969L24.9637 34.8847L30.4316 31.8717L29.9975 31.084Z" fill="white"/>
<path id="Vector_9" d="M43.195 32.4035C42.5276 32.4035 41.8752 32.2056 41.3202 31.8348C40.7653 31.464 40.3327 30.9369 40.0773 30.3203C39.8219 29.7037 39.7551 29.0252 39.8853 28.3706C40.0155 27.7159 40.3369 27.1146 40.8088 26.6427C41.2808 26.1708 41.8821 25.8494 42.5367 25.7191C43.1913 25.5889 43.8698 25.6558 44.4865 25.9112C45.1031 26.1666 45.6301 26.5991 46.0009 27.1541C46.3717 27.709 46.5697 28.3615 46.5697 29.0289C46.5687 29.9236 46.2129 30.7814 45.5802 31.4141C44.9476 32.0467 44.0898 32.4026 43.195 32.4035ZM43.195 26.5542C42.7056 26.5542 42.2271 26.6993 41.8202 26.9713C41.4132 27.2432 41.096 27.6297 40.9087 28.0819C40.7214 28.5341 40.6724 29.0317 40.7679 29.5117C40.8634 29.9918 41.0991 30.4327 41.4452 30.7788C41.7913 31.1249 42.2322 31.3606 42.7123 31.4561C43.1923 31.5516 43.6899 31.5026 44.1421 31.3153C44.5943 31.1279 44.9808 30.8108 45.2527 30.4038C45.5246 29.9968 45.6698 29.5184 45.6698 29.0289C45.6689 28.3728 45.4079 27.7439 44.944 27.2799C44.4801 26.816 43.8511 26.555 43.195 26.5542Z" fill="white"/>
</g>
</g>
</svg>
