<svg width="65" height="58" viewBox="0 0 65 58" fill="none" xmlns="http://www.w3.org/2000/svg">
<g id="SVG">
<g id="Group">
<path id="Vector" d="M51.1412 36.692C51.1401 35.7099 50.7494 34.7682 50.0549 34.0737C49.3604 33.3792 48.4188 32.9886 47.4366 32.9875H36.2259C37.7741 29.2352 37.7798 25.0236 36.2416 21.2672C36.2281 21.2342 36.2127 21.2021 36.1954 21.171C35.8792 20.6021 35.4105 20.1327 34.8421 19.8157C34.2737 19.4987 33.6281 19.3465 32.978 19.3764C32.3278 19.4063 31.6989 19.617 31.162 19.9848C30.625 20.3527 30.2014 20.8631 29.9387 21.4586C29.8973 21.5526 29.8724 21.6531 29.8652 21.7556L29.6005 25.5126C29.2044 27.6717 28.0394 29.6142 26.3211 30.9803C25.6329 31.2219 24.3729 32.0765 21.0858 35.2042V35.1108C21.0853 34.6184 20.8895 34.1462 20.5412 33.798C20.193 33.4498 19.7209 33.254 19.2284 33.2535H9.87852C9.38609 33.254 8.91398 33.4499 8.56578 33.7981C8.21758 34.1463 8.02174 34.6184 8.02124 35.1108V53.7694C8.02159 54.262 8.21736 54.7342 8.56558 55.0825C8.9138 55.4309 9.386 55.6268 9.87852 55.6273H19.2279C19.7203 55.6268 20.1925 55.431 20.5407 55.0828C20.8889 54.7346 21.0848 54.2624 21.0853 53.77V53.6882C23.6563 54.2553 24.9981 54.9292 26.5633 56.3832C27.1786 56.9686 27.9982 57.2906 28.8475 57.2805H43.3396C44.0429 57.2808 44.7317 57.0807 45.3254 56.7039C45.9191 56.327 46.3932 55.7888 46.6923 55.1523C46.9913 54.5158 47.103 53.8074 47.0141 53.1098C46.9252 52.4121 46.6395 51.7543 46.1904 51.2131C47.347 50.5174 48.1698 49.2719 48.1698 47.9485C48.1707 47.1252 47.8959 46.3253 47.3893 45.6763C48.5674 44.9786 49.4126 43.6907 49.4126 42.3206C49.4135 41.5482 49.1716 40.795 48.7211 40.1676C49.4309 39.9043 50.0431 39.4302 50.4757 38.8089C50.9082 38.1877 51.1405 37.449 51.1412 36.692ZM19.304 53.7698C19.3033 53.7897 19.295 53.8086 19.2809 53.8227C19.2667 53.8368 19.2478 53.8451 19.2279 53.8458H9.87852C9.85859 53.8451 9.83966 53.8368 9.82555 53.8227C9.81145 53.8086 9.8032 53.7897 9.80249 53.7698V35.1112C9.80323 35.0912 9.81148 35.0723 9.82558 35.0582C9.83968 35.0441 9.85859 35.0359 9.87852 35.0351H19.2279C19.2478 35.0359 19.2667 35.0441 19.2808 35.0582C19.295 35.0723 19.3032 35.0912 19.304 35.1112V53.7698ZM47.4366 38.6152H44.3411C44.1049 38.6152 43.8784 38.7091 43.7114 38.8761C43.5444 39.0431 43.4505 39.2696 43.4505 39.5058C43.4505 39.7421 43.5444 39.9686 43.7114 40.1356C43.8784 40.3026 44.1049 40.3965 44.3411 40.3965H45.708C46.2179 40.3972 46.7067 40.6 47.0672 40.9606C47.4278 41.3211 47.6306 41.8099 47.6313 42.3198C47.6313 43.3217 46.6412 44.341 45.625 44.429C45.2508 44.3056 44.8593 44.2428 44.4653 44.2432C44.2291 44.2432 44.0025 44.337 43.8355 44.504C43.6685 44.6711 43.5747 44.8976 43.5747 45.1338C43.5747 45.37 43.6685 45.5966 43.8355 45.7636C44.0025 45.9306 44.2291 46.0244 44.4653 46.0244C44.6905 46.0242 44.914 46.0637 45.1255 46.1411C45.1489 46.1515 45.1728 46.1608 45.1973 46.1691C45.5494 46.3145 45.8506 46.5611 46.0626 46.8777C46.2747 47.1943 46.388 47.5667 46.3885 47.9477C46.3885 48.9297 45.3589 49.9294 44.3106 50.0002C43.9941 49.9143 43.6675 49.8708 43.3395 49.871C43.1033 49.871 42.8768 49.9649 42.7098 50.1319C42.5427 50.2989 42.4489 50.5255 42.4489 50.7617C42.4489 50.9979 42.5427 51.2244 42.7098 51.3914C42.8768 51.5585 43.1033 51.6523 43.3395 51.6523C43.526 51.6522 43.7116 51.6793 43.8903 51.7327C43.9113 51.7402 43.9328 51.7472 43.9546 51.7532C44.3869 51.8989 44.7534 52.1935 44.9885 52.5845C45.2237 52.9754 45.3122 53.4372 45.2383 53.8874C45.1644 54.3376 44.9329 54.7469 44.5851 55.0421C44.2373 55.3374 43.7959 55.4994 43.3396 55.4992H28.8475C28.6498 55.5037 28.4532 55.4687 28.2692 55.3964C28.0852 55.3241 27.9173 55.216 27.7755 55.0782C25.8841 53.3209 24.2307 52.5209 21.0853 51.8664V37.6773L21.2432 37.5235C25.6146 33.2783 26.6855 32.7271 26.9128 32.6602C27.0449 32.633 27.169 32.5763 27.276 32.4943C29.4286 30.8454 30.8864 28.4507 31.3624 25.7812C31.3679 25.75 31.3719 25.7184 31.3742 25.6868L31.6303 22.0525C31.7749 21.786 31.9876 21.5626 32.2467 21.405C32.5058 21.2474 32.802 21.1613 33.1052 21.1554C33.4084 21.1495 33.7077 21.2241 33.9727 21.3715C34.2377 21.5189 34.459 21.7339 34.6139 21.9946C35.3576 23.8333 35.6914 25.8121 35.592 27.793C35.4926 29.7739 34.9624 31.7094 34.0384 33.4644C33.9671 33.6001 33.9321 33.752 33.9367 33.9052C33.9413 34.0585 33.9853 34.208 34.0646 34.3392C34.1439 34.4704 34.2558 34.579 34.3893 34.6543C34.5229 34.7296 34.6736 34.7692 34.8269 34.7692H47.4366C47.9442 34.773 48.4297 34.9774 48.7872 35.3376C49.1448 35.6979 49.3454 36.1849 49.3454 36.6925C49.3454 37.2001 49.1448 37.6871 48.7872 38.0474C48.4297 38.4077 47.9442 38.6113 47.4366 38.6152ZM16.2849 37.9606V38.068C16.2849 38.3042 16.1911 38.5308 16.024 38.6978C15.857 38.8648 15.6305 38.9587 15.3943 38.9587C15.1581 38.9587 14.9315 38.8648 14.7645 38.6978C14.5975 38.5308 14.5036 38.3042 14.5036 38.068V37.9606C14.5036 37.7244 14.5975 37.4979 14.7645 37.3308C14.9315 37.1638 15.1581 37.07 15.3943 37.07C15.6305 37.07 15.857 37.1638 16.024 37.3308C16.1911 37.4979 16.2849 37.7244 16.2849 37.9606ZM43.0092 7.91563C42.9555 7.75031 42.8546 7.60433 42.7189 7.49566C42.5833 7.387 42.4188 7.32041 42.2457 7.3041L35.8623 6.70293L33.3173 0.81768C33.2483 0.658142 33.1342 0.522275 32.9889 0.426825C32.8437 0.331377 32.6737 0.280518 32.4998 0.280518C32.326 0.280518 32.156 0.331377 32.0108 0.426825C31.8655 0.522275 31.7513 0.658142 31.6824 0.81768L29.1377 6.70282L22.7544 7.30399C22.5814 7.32031 22.4169 7.38689 22.2812 7.49555C22.1456 7.6042 22.0447 7.75018 21.991 7.91548C21.9372 8.08078 21.9331 8.25818 21.979 8.42582C22.0249 8.59346 22.1188 8.74401 22.2492 8.85891L27.06 13.0974L25.6593 19.354C25.6213 19.5236 25.6338 19.7006 25.6952 19.8632C25.7567 20.0258 25.8643 20.1669 26.0049 20.269C26.1455 20.3712 26.313 20.43 26.4866 20.4382C26.6602 20.4463 26.8324 20.4035 26.982 20.315L32.4998 17.0496L38.0175 20.3152C38.1671 20.4037 38.3393 20.4465 38.5129 20.4384C38.6865 20.4302 38.8539 20.3714 38.9945 20.2693C39.1352 20.1671 39.2428 20.026 39.3042 19.8634C39.3656 19.7009 39.3781 19.5238 39.3402 19.3542L37.9396 13.0976L42.7504 8.85913C42.8809 8.74429 42.975 8.59376 43.021 8.42611C43.0669 8.25845 43.0629 8.081 43.0092 7.91563ZM36.367 12.1094C36.2473 12.2149 36.1581 12.3507 36.1088 12.5025C36.0595 12.6543 36.0519 12.8165 36.0867 12.9722L37.1526 17.7332L32.9541 15.2482C32.8167 15.1669 32.66 15.124 32.5004 15.124C32.3408 15.124 32.1841 15.1669 32.0467 15.2482L27.8482 17.7332L28.9135 12.9719C28.9484 12.8162 28.9408 12.6539 28.8914 12.5021C28.8421 12.3504 28.7529 12.2146 28.6332 12.1091L24.9726 8.88396L29.8299 8.4264C29.9887 8.41142 30.1407 8.35402 30.2698 8.26021C30.3989 8.1664 30.5004 8.03962 30.5637 7.89314L32.4998 3.41541L34.4359 7.89347C34.4993 8.03996 34.6008 8.16673 34.7299 8.26054C34.859 8.35435 35.0109 8.41175 35.1698 8.42674L40.0272 8.88429L36.367 12.1094ZM58.689 13.1344C58.6353 12.9691 58.5344 12.8231 58.3987 12.7145C58.2631 12.6058 58.0986 12.5392 57.9255 12.5229L53.4271 12.0992L51.6335 7.95192C51.5645 7.79238 51.4503 7.65652 51.3051 7.56107C51.1598 7.46562 50.9898 7.41476 50.816 7.41476C50.6422 7.41476 50.4722 7.46562 50.3269 7.56107C50.1816 7.65652 50.0675 7.79238 49.9985 7.95192L48.2055 12.0992L43.7069 12.5229C43.5338 12.5392 43.3693 12.6058 43.2337 12.7145C43.098 12.8231 42.9971 12.9691 42.9433 13.1344C42.8896 13.2997 42.8855 13.4772 42.9314 13.6448C42.9773 13.8125 43.0713 13.963 43.2017 14.0779L46.592 17.0648L45.6049 21.474C45.567 21.6437 45.5795 21.8207 45.6409 21.9833C45.7024 22.1459 45.8101 22.287 45.9507 22.3892C46.0914 22.4913 46.2589 22.5501 46.4325 22.5582C46.6062 22.5663 46.7784 22.5234 46.928 22.4348L50.8163 20.1335L54.7043 22.4348C54.8539 22.5233 55.0261 22.5662 55.1998 22.558C55.3734 22.5499 55.5409 22.4911 55.6815 22.3889C55.8221 22.2868 55.9298 22.1457 55.9912 21.9831C56.0526 21.8205 56.0651 21.6434 56.0271 21.4738L55.04 17.0645L58.4302 14.0777C58.5606 13.9628 58.6545 13.8123 58.7004 13.6447C58.7463 13.4771 58.7427 13.2997 58.689 13.1344ZM53.4677 16.0767C53.348 16.1822 53.2588 16.318 53.2095 16.4698C53.1602 16.6215 53.1525 16.7838 53.1874 16.9395L53.8397 19.853L51.2698 18.3323C51.1324 18.251 50.9757 18.2081 50.8161 18.2081C50.6565 18.2081 50.4998 18.251 50.3624 18.3323L47.7933 19.853L48.4455 16.9395C48.4803 16.7838 48.4727 16.6215 48.4234 16.4698C48.3741 16.318 48.2849 16.1822 48.1652 16.0767L45.9249 14.1032L48.8974 13.8231C49.0563 13.8082 49.2082 13.7508 49.3373 13.6569C49.4665 13.5631 49.568 13.4364 49.6313 13.2899L50.8161 10.5495L52.0009 13.2899C52.0642 13.4364 52.1657 13.5631 52.2949 13.6569C52.424 13.7508 52.5759 13.8082 52.7348 13.8231L55.7073 14.1032L53.4677 16.0767ZM21.2939 12.5229L16.7955 12.0992L15.0012 7.95192C14.9322 7.79238 14.818 7.65652 14.6728 7.56107C14.5275 7.46562 14.3575 7.41476 14.1837 7.41476C14.0099 7.41476 13.8399 7.46562 13.6946 7.56107C13.5493 7.65652 13.4352 7.79238 13.3662 7.95192L11.5732 12.0992L7.07472 12.5229C6.90166 12.5392 6.73715 12.6058 6.60147 12.7145C6.46579 12.8231 6.36487 12.9691 6.31116 13.1344C6.25745 13.2997 6.25329 13.4772 6.2992 13.6448C6.34511 13.8125 6.43908 13.963 6.56952 14.0779L9.95968 17.0648L8.97253 21.474C8.93461 21.6436 8.94715 21.8206 9.00859 21.9832C9.07003 22.1458 9.1777 22.2868 9.31832 22.389C9.45894 22.4911 9.62637 22.5499 9.79997 22.558C9.97358 22.5661 10.1458 22.5233 10.2953 22.4348L14.1837 20.1335L18.0717 22.4348C18.2213 22.5233 18.3935 22.5661 18.5671 22.558C18.7407 22.5498 18.9082 22.491 19.0488 22.3888C19.1894 22.2867 19.297 22.1456 19.3584 21.983C19.4199 21.8204 19.4324 21.6434 19.3944 21.4738L18.4073 17.0645L21.7975 14.0777C21.928 13.9628 22.0219 13.8123 22.0679 13.6446C22.1138 13.477 22.1096 13.2995 22.0559 13.1342C22.0022 12.9689 21.9013 12.8229 21.7656 12.7142C21.6299 12.6056 21.4654 12.539 21.2923 12.5227L21.2939 12.5229ZM16.8359 16.0767C16.7161 16.1822 16.6269 16.318 16.5776 16.4698C16.5283 16.6215 16.5207 16.7838 16.5555 16.9395L17.2077 19.8529L14.6374 18.3323C14.5 18.251 14.3433 18.2081 14.1837 18.2081C14.0241 18.2081 13.8674 18.251 13.73 18.3323L11.1608 19.853L11.8131 16.9395C11.8479 16.7838 11.8403 16.6215 11.791 16.4698C11.7417 16.318 11.6525 16.1822 11.5328 16.0767L9.2926 14.1032L12.2651 13.8231C12.424 13.8082 12.5759 13.7508 12.7051 13.6569C12.8342 13.5631 12.9357 13.4364 12.9991 13.2899L14.1837 10.5496L15.3684 13.2899C15.4318 13.4363 15.5333 13.5631 15.6624 13.6569C15.7915 13.7507 15.9434 13.8081 16.1023 13.8231L19.0748 14.1032L16.8359 16.0767Z" fill="#FA7436"/>
</g>
</g>
</svg>
