<svg width="65" height="58" viewBox="0 0 65 58" fill="none" xmlns="http://www.w3.org/2000/svg">
<g id="SVG">
<g id="Group">
<path id="Vector" d="M33.8307 3.12513L33.8917 3.06586C20.3378 2.93511 6.62091 13.8819 6.8545 29.9705C7.08113 45.5344 19.6187 56.5091 34.2499 55.8362C36.1739 55.7508 38.0812 55.4405 39.933 54.9114C42.2367 56.72 46.057 57.9246 48.5569 56.9109C49.5767 56.4882 50.4867 55.8092 51.2476 54.941C54.0647 52.368 54.4927 47.9749 53.8276 44.1502C58.0237 38.1944 59.21 31.3433 58.1309 24.9665C56.1471 13.2386 46.5024 3.11815 33.8307 3.12513ZM46.9688 8.90405C46.919 9.00574 46.8973 9.1189 46.906 9.23178C47.1222 11.3612 44.8228 12.8551 42.9645 11.8092C41.5917 11.0352 40.8377 9.03131 38.9986 8.36015C35.6297 7.12679 33.1377 11.0517 30.4086 10.7684C29.3679 10.6577 28.3429 9.84367 27.7963 8.69399C27.3867 7.83281 27.2045 6.76942 27.2071 5.41316C34.2412 3.32386 41.1567 4.6008 46.9688 8.90405ZM10.4238 22.3978C15.006 21.0197 21.185 23.9057 16.7074 26.2321C15.6658 26.7568 14.5955 27.2406 14.001 28.2316C13.2471 29.492 13.6384 31.2623 14.857 32.0982C15.3242 32.4163 15.9352 32.6438 16.0023 32.9018C16.1592 33.5015 13.1346 35.5028 9.80062 34.5161C9.45109 32.9084 9.25612 31.271 9.21837 29.6262C9.15364 27.1887 9.45839 24.7554 10.1223 22.4091C10.2222 22.4296 10.3257 22.4257 10.4238 22.3978ZM22.8821 45.367C24.4301 42.5168 27.6917 41.7166 28.1154 42.2222C28.3838 42.5438 27.9524 43.4337 27.8234 44.1799C27.466 46.2029 29.435 48.1963 31.4668 47.8669C33.794 47.4868 34.8879 44.7647 36.6704 44.5364C37.5142 44.4318 38.4956 44.9434 39.3028 45.917C40.4777 47.3299 41.2282 50.2647 41.0399 52.4316C38.6959 53.2851 36.2278 53.7482 33.7339 53.8027C29.8578 53.8901 26.0208 53.0121 22.5683 51.2479C22.0749 49.5108 22.0715 46.8601 22.8821 45.367ZM39.5311 33.7726C39.4902 32.7196 39.3629 31.6946 39.2051 30.3253C39.1934 30.2297 39.1606 30.138 39.109 30.0568C39.0575 29.9755 38.9885 29.9067 38.907 29.8554C38.0502 29.0448 36.5554 27.4349 34.039 25.6045C33.9626 25.5488 33.875 25.5103 33.7823 25.4917C33.6896 25.4731 33.5939 25.4748 33.5019 25.4968C33.41 25.5188 33.3238 25.5604 33.2495 25.6189C33.1752 25.6774 33.1145 25.7513 33.0715 25.8355C31.3509 29.2096 30.2692 32.4128 29.5884 36.1286C29.0175 35.8409 28.9826 35.8235 28.8728 35.7625C29.5544 31.0461 29.6765 26.5825 29.741 22.4073C29.7426 22.3058 29.7205 22.2053 29.6764 22.1137C29.6324 22.0222 29.5677 21.9422 29.4873 21.88C27.3187 20.2012 25.3383 18.7944 23.4391 17.5829C23.0834 16.4846 22.835 16.312 22.9875 16.0784C23.1061 15.8954 23.1767 16.007 24.336 15.8823C26.7861 17.5149 29.0968 18.9417 31.2044 20.1254C31.3822 20.2248 31.5967 20.237 31.7849 20.1551C35.5068 18.5469 39.7543 17.2011 44.0924 16.2528C44.1456 16.3356 44.2336 16.4794 44.2841 16.5665C41.2143 18.0657 38.0799 20.2858 35.1773 23.0367C35.1143 23.0962 35.0638 23.1677 35.0288 23.2469C34.9937 23.3262 34.9748 23.4116 34.9731 23.4983C34.9714 23.5849 34.9869 23.6711 35.0188 23.7516C35.0508 23.8322 35.0984 23.9056 35.159 23.9676C36.8892 25.7457 38.4538 27.2118 39.8048 28.3222C40.3906 28.7999 40.9868 27.9736 44.2449 27.3251C44.3818 27.4864 44.5256 27.6764 44.6677 27.8786C41.7651 29.7264 40.7697 30.5022 39.7952 33.8841C39.7073 33.8467 39.6193 33.8095 39.5311 33.7726ZM43.2356 30.4577C48.9866 36.6707 55.9082 48.416 49.9585 54.3954C54.0612 48.0577 48.2536 38.4096 41.8 32.2585C42.1392 31.5593 42.6296 30.9443 43.2356 30.4577ZM49.894 48.5903C50.0526 50.3179 49.8242 51.5887 49.4189 52.6085C47.6975 55.1136 44.5343 55.3594 42.4372 54.0424C44.9405 52.9912 47.2573 51.4536 48.9596 49.4088C49.2795 49.1473 49.5854 48.8692 49.894 48.5903ZM45.1732 29.1085C45.4225 28.9455 45.6587 28.7973 45.8601 28.6814C45.8845 28.6718 45.9106 28.6753 45.9333 28.6622C46.0817 28.5725 46.1884 28.4276 46.2301 28.2593C46.2718 28.0909 46.245 27.913 46.1555 27.7644C45.9734 27.4628 45.4905 26.701 44.944 26.1545C44.87 26.0799 44.7789 26.0244 44.6787 25.9928C44.5785 25.9612 44.4721 25.9545 44.3687 25.9732C42.9026 26.2303 41.6039 26.6531 40.3557 27.0802C39.2304 26.1345 37.9578 24.9438 36.5624 23.5318C39.4274 20.8994 42.4973 18.8005 45.473 17.4434C45.6173 17.3761 45.7317 17.258 45.7944 17.1117C45.8571 16.9654 45.8637 16.8011 45.813 16.6502C45.8008 16.5395 45.7596 16.434 45.6936 16.3443C45.2691 15.7951 44.9326 14.7413 44.2031 14.8921C39.7656 15.8361 35.4031 17.1941 31.5644 18.8267C25.4333 15.3506 25.0481 14.4807 24.4162 14.5557C23.2177 14.7082 22.4628 14.4955 21.8945 15.3602C21.7563 15.5712 21.6701 15.8119 21.643 16.0627C21.6159 16.3135 21.6486 16.5671 21.7385 16.8028C22.9492 19.7288 20.9828 16.9858 28.4283 22.7142C28.3585 27.0331 28.2252 31.3111 27.5174 35.9883C27.3936 36.8102 28.7856 37.0325 29.5631 37.6208C29.6464 37.6845 29.7438 37.727 29.8471 37.7446C29.9504 37.7622 30.0565 37.7545 30.1561 37.7221C30.2557 37.6897 30.346 37.6336 30.4192 37.5585C30.4923 37.4835 30.5461 37.3918 30.576 37.2913C31.1425 36.7352 30.8288 33.4126 33.8899 27.1246C35.22 28.1409 36.4961 29.281 37.9369 30.7349C37.9849 31.2596 38.0563 31.4706 38.2045 33.8031C38.2681 34.795 38.3239 34.6764 39.2226 35.0617C39.8911 35.352 39.9338 35.3816 40.1613 35.3493C40.3276 35.3768 40.4981 35.3385 40.6367 35.2425C40.7753 35.1465 40.8711 35.0004 40.904 34.8351C40.9859 34.4272 41.1201 33.9957 41.2683 33.573C45.1985 37.3907 48.5464 41.5362 49.6647 47.0327C47.5459 49.0787 45.0742 50.7241 42.3692 51.8894C42.3953 49.4898 41.5716 46.6004 40.3095 45.0811C39.1982 43.7423 37.8079 43.0746 36.5031 43.2385C34.1418 43.5427 33.0488 46.2848 31.2559 46.5768C30.1184 46.7651 28.9103 45.5466 29.1099 44.4065C29.2598 43.5697 29.9327 42.3547 29.1169 41.3828C28.6235 40.7901 27.7728 40.6105 26.7207 40.8738C24.628 41.4002 22.7635 42.8454 21.7324 44.7421C20.9253 46.2299 20.7797 48.5206 21.0543 50.3989C15.8593 47.2384 11.8934 42.1272 10.1641 35.9595C12.3257 36.3787 14.4961 35.8784 16.1531 34.7418C17.0578 34.1195 17.464 33.3298 17.2662 32.5706C17.0265 31.6554 16.1086 31.3677 15.5944 31.0191C14.9494 30.5772 14.7236 29.5678 15.1228 28.9036C15.5142 28.2482 16.3605 27.8699 17.3106 27.3913C20.6202 25.6725 20.085 22.8266 17.0587 21.5366C15.0409 20.6737 12.7066 20.4993 10.5668 21.0145C13.0684 13.9525 18.8586 8.36364 25.891 5.84113C25.9956 9.87331 28.1537 11.8432 30.2674 12.0689C33.3591 12.3914 36.083 8.68701 38.5488 9.58741C39.9547 10.1017 40.686 12.0262 42.3221 12.9475C44.6807 14.2776 47.8744 12.8778 48.1943 9.87418C52.6936 13.6797 55.7226 19.042 56.7834 24.8113C57.8572 30.653 56.9141 36.9113 53.4363 42.3921C52.0608 37.3611 48.5098 33.016 45.1732 29.1085Z" fill="#FA7436"/>
<path id="Vector_2" d="M52.2254 21.4774C51.7574 21.1523 51.7399 21.1375 51.7853 20.5081C51.8062 20.2127 51.8306 19.8771 51.7399 19.5258C51.2727 17.7041 48.6326 17.5969 47.8899 19.5136C47.367 20.8655 45.0162 21.5175 46.1127 24.3424C47.0584 26.7795 50.6417 27.7383 52.554 25.9262C53.1433 25.3684 53.4849 24.5281 53.4684 23.68C53.4457 22.6253 52.9672 21.9908 52.2254 21.4774ZM47.3321 23.8691C46.5607 21.8827 48.3824 21.86 49.1094 19.986C49.2401 19.6487 49.5739 19.4203 49.8651 19.4203C50.1326 19.4203 50.4133 19.6165 50.4735 19.8501C50.5798 20.2658 50.2843 21.0093 50.6591 21.7275C51.1551 22.6776 52.1374 22.512 52.1609 23.7062C52.208 26.1371 48.2055 26.1258 47.3321 23.8691ZM46.9904 4.41347L47.4681 0.996671C47.4839 0.828894 47.4344 0.661469 47.33 0.529249C47.2255 0.397029 47.074 0.310201 46.9071 0.28684C46.7402 0.263479 46.5707 0.305385 46.434 0.403834C46.2972 0.502284 46.2036 0.649691 46.1728 0.815371L45.6952 4.23304C45.5766 5.08986 46.8701 5.27029 46.9904 4.41347ZM51.0374 2.30848L48.9054 5.36704C48.4059 6.08265 49.4946 6.80959 49.9775 6.11403L52.1095 3.05634C52.1607 2.98604 52.1974 2.90623 52.2173 2.82158C52.2373 2.73693 52.2402 2.64915 52.2258 2.56338C52.2114 2.47761 52.1801 2.39557 52.1336 2.32206C52.0871 2.24856 52.0264 2.18507 51.9551 2.13531C51.8838 2.08555 51.8032 2.05053 51.7182 2.03229C51.6331 2.01405 51.5453 2.01296 51.4599 2.02909C51.3744 2.04521 51.293 2.07823 51.2205 2.12621C51.1479 2.17418 51.0857 2.23615 51.0374 2.30848ZM52.4494 9.35476L56.2219 6.52544C56.3606 6.42141 56.4523 6.26654 56.4768 6.09491C56.5013 5.92327 56.4566 5.74893 56.3526 5.61022C56.2486 5.47152 56.0937 5.37982 55.9221 5.3553C55.7504 5.33078 55.5761 5.37545 55.4374 5.47948L51.6641 8.30967C50.9677 8.83178 51.767 9.86902 52.4486 9.35563L52.4494 9.35476Z" fill="#FA7436"/>
</g>
</g>
</svg>
