<svg width="1920" height="191" viewBox="0 0 1920 191" fill="none" xmlns="http://www.w3.org/2000/svg">
<g opacity="0.2" clip-path="url(#clip0_420_60)">
<path fill-rule="evenodd" clip-rule="evenodd" d="M1660.42 115.816C1657.63 118.495 1658.43 118.182 1651.93 116.222C1646.22 114.366 1648.93 113.751 1643.82 116.732C1639.22 119.516 1631.72 122.288 1628.23 124.445C1629.53 127.426 1640.72 137.204 1643.43 141.217C1642.43 141.728 1641.63 142.145 1640.53 142.656C1638.83 143.479 1639.24 143.479 1637.23 142.25C1632.83 139.675 1618.72 131.439 1615.93 130.21C1612.23 131.857 1602.43 137.007 1599.04 136.798C1597.43 136.694 1594.83 136.288 1595.34 134.223C1596.63 129.178 1605.44 126.405 1611.14 123.83C1613.44 122.798 1612.84 122.903 1613.34 120.328C1613.95 117.555 1617.74 97.3848 1618.63 96.3525C1619.03 96.0394 1622.13 94.7055 1622.74 94.3923C1623.04 96.2481 1623.23 98.3012 1623.33 100.261L1624.34 111.686C1624.34 113.542 1624.64 115.7 1624.93 117.451C1627.54 116.117 1630.13 114.98 1632.83 113.647C1646.24 107.058 1643.83 111.489 1646.93 104.077C1648.74 99.9598 1648.74 97.4892 1652.64 98.104C1651.93 106.351 1654.12 111.489 1660.42 115.816ZM1546.63 36.0612C1550.23 37.1978 1549.42 37.3022 1554.43 32.5583C1558.82 28.4406 1556.13 29.0554 1562.02 29.5773C1567.22 29.9833 1575.22 29.2642 1579.32 29.6817C1579.42 32.8714 1573.33 46.6626 1572.53 51.4994C1573.63 51.4994 1574.52 51.4994 1575.73 51.4994C1577.63 51.4994 1577.23 51.7081 1578.62 49.7479C1581.52 45.4215 1590.73 31.7347 1592.83 29.4729C1596.93 29.3686 1607.83 29.5773 1610.82 28.0347C1612.22 27.2111 1614.42 25.5641 1613.12 23.917C1609.82 20.0082 1600.73 21.3421 1594.53 21.5509C1592.02 21.5509 1592.63 21.4465 1591.02 19.3935C1589.32 17.1317 1577.52 0.55675 1576.33 0.0463958C1575.83 -0.0579948 1572.43 0.0463958 1571.83 0.0463958C1572.23 1.90223 1572.93 3.74646 1573.63 5.6023L1577.53 16.4009C1578.23 18.048 1578.93 20.2054 1579.44 21.8524C1576.54 21.748 1573.63 21.8524 1570.63 21.8524C1555.84 21.8524 1559.94 24.8334 1553.93 19.4862C1550.64 16.5053 1549.64 14.3363 1546.33 16.6097C1550.34 23.7199 1550.53 29.3686 1546.63 36.0612ZM1545.03 25.5641C1546.53 25.3553 1547.03 27.7215 1545.32 28.0347L1542.92 28.3478C1541.42 28.661 1540.81 26.1904 1542.51 25.8773L1545.03 25.5641ZM1332.65 190.223C1331.85 191.87 1329.65 190.629 1330.35 189.191L1330.95 187.857C1331.75 186.314 1333.95 187.544 1333.15 188.993L1332.65 190.223ZM1336.45 182.092C1335.65 183.635 1333.45 182.51 1334.25 180.955L1335.35 178.693C1336.05 177.151 1338.25 178.38 1337.55 179.819L1336.45 182.092ZM1340.94 173.033C1340.25 174.471 1337.95 173.439 1338.75 171.897L1339.94 169.635C1340.64 168.196 1342.84 169.229 1342.14 170.876L1340.94 173.033ZM1345.75 164.183C1344.84 165.726 1342.75 164.288 1343.55 162.942L1344.84 160.68C1345.75 159.138 1347.74 160.576 1346.94 161.91L1345.75 164.183ZM1350.75 155.438C1349.85 156.876 1347.75 155.542 1348.65 154.104L1349.95 151.946C1350.75 150.508 1352.95 151.842 1352.05 153.28L1350.75 155.438ZM1356.05 146.796C1355.25 148.13 1353.05 146.901 1353.95 145.463L1355.35 143.305C1356.15 141.971 1358.35 143.201 1357.34 144.743L1356.05 146.796ZM1361.55 138.457C1360.54 139.791 1358.65 138.248 1359.55 136.914L1360.95 134.861C1361.95 133.527 1363.95 135.07 1362.94 136.404L1361.55 138.457ZM1367.34 130.221C1366.34 131.555 1364.44 130.013 1365.44 128.679L1366.93 126.626C1367.94 125.292 1369.83 126.939 1368.83 128.168L1367.34 130.221ZM1373.14 122.508C1372.24 123.019 1371.15 122.195 1371.24 121.174C1371.14 120.56 1371.63 119.736 1372.34 119.632L1373.14 118.599C1374.15 117.37 1376.14 118.912 1375.05 120.246L1374.85 120.56L1375.24 120.664C1376.84 121.279 1375.84 123.645 1374.34 123.03L1373.14 122.508ZM1379.85 114.482C1378.64 115.723 1376.95 113.971 1378.05 112.73L1379.65 110.874C1380.84 109.541 1382.54 111.385 1381.45 112.521L1379.85 114.482ZM1386.54 106.966C1385.44 108.195 1383.55 106.455 1384.74 105.214L1386.44 103.358C1387.55 102.129 1389.34 103.869 1388.25 105.11L1386.54 106.966ZM1393.44 99.7626C1392.15 100.899 1390.55 98.9391 1391.74 97.9068L1393.44 96.1553C1394.74 94.9143 1396.34 96.8745 1395.25 98.0112L1393.44 99.7626ZM1400.64 92.7684C1399.44 93.9051 1397.75 92.0493 1398.94 90.9126L1400.85 89.1612C1402.04 88.0245 1403.74 89.9847 1402.45 91.1214L1400.64 92.7684ZM1408.04 86.1802C1406.93 87.2126 1405.24 85.3567 1406.54 84.2316L1408.44 82.5846C1409.84 81.4479 1411.24 83.6169 1409.94 84.5448L1408.04 86.1802ZM1415.84 79.8008C1414.44 80.8331 1413.04 78.7685 1414.34 77.8406L1416.24 76.2979C1417.64 75.2656 1419.04 77.3302 1417.74 78.2582L1415.84 79.8008ZM1423.74 73.8274C1422.54 74.7553 1420.94 72.795 1422.34 71.7743C1423.04 71.264 1423.74 70.742 1424.44 70.3361C1425.63 69.4081 1427.23 71.3684 1425.83 72.3891C1425.15 72.8994 1424.45 73.317 1423.74 73.8274ZM1431.94 68.1671C1430.54 69.095 1429.34 66.8332 1430.65 66.0097L1432.74 64.6758C1434.14 63.7479 1435.45 66.0097 1434.04 66.8332L1431.94 68.1671ZM1440.34 62.9243C1439.04 63.7479 1437.64 61.5905 1439.14 60.6625L1441.34 59.433C1442.64 58.6095 1444.03 60.7669 1442.54 61.6948L1440.34 62.9243ZM1449.04 57.9832C1447.44 58.8067 1446.43 56.4405 1447.83 55.7214L1450.03 54.4919C1451.53 53.7728 1452.63 56.1389 1451.24 56.8581L1449.04 57.9832ZM1457.84 53.4596C1456.44 54.1787 1455.24 51.9169 1456.74 51.0934C1457.54 50.7802 1458.23 50.3743 1459.04 50.0611C1460.43 49.342 1461.54 51.6038 1460.04 52.3229C1459.34 52.7289 1458.54 53.042 1457.84 53.4596ZM1466.83 49.2376C1465.23 49.8523 1464.43 47.4861 1465.83 46.8714L1468.13 45.8391C1469.73 45.2243 1470.53 47.6833 1469.03 48.2053L1466.83 49.2376ZM1475.94 45.4215C1474.44 46.0363 1473.54 43.6701 1475.04 43.0553L1477.44 42.1274C1478.84 41.5127 1479.84 43.8788 1478.24 44.4936L1475.94 45.4215ZM1485.24 41.9302C1483.74 42.4406 1482.84 40.0744 1484.44 39.564C1485.24 39.2509 1486.04 38.9493 1486.84 38.7405C1488.24 38.1258 1489.14 40.492 1487.54 41.1067C1486.74 41.4083 1486.04 41.6171 1485.24 41.9302ZM1494.64 38.8449C1492.94 39.2509 1492.44 36.7919 1493.94 36.3743L1496.34 35.6552C1497.94 35.2492 1498.54 37.7082 1496.94 38.1258L1494.64 38.8449ZM1504.14 36.0612C1502.54 36.4787 1501.94 34.0081 1503.54 33.5906L1505.94 32.9758C1507.44 32.5699 1508.14 35.0288 1506.54 35.4464L1504.14 36.0612ZM1513.73 33.695C1512.23 34.1009 1511.43 31.642 1513.13 31.12L1515.63 30.6096C1517.34 30.2965 1517.64 32.8714 1516.13 33.0802L1513.73 33.695ZM1523.33 31.5376C1521.73 31.8507 1521.34 29.3802 1522.94 29.067L1525.34 28.661C1527.04 28.3478 1527.43 30.8184 1525.83 31.1316L1523.33 31.5376ZM1533.13 29.7861C1531.53 30.0993 1531.03 27.6287 1532.73 27.3155L1535.13 26.9096C1536.73 26.5964 1537.23 29.1714 1535.53 29.4845L1533.13 29.7861ZM1200.16 129.398C1197.35 132.077 1198.16 131.764 1191.66 129.711C1185.96 127.96 1188.66 127.241 1183.55 130.326C1178.96 133.005 1171.45 135.882 1167.96 138.039C1169.25 141.02 1180.46 150.798 1183.16 154.811C1182.16 155.322 1181.36 155.635 1180.26 156.145C1178.56 157.073 1178.97 157.073 1176.96 155.832C1172.57 153.257 1158.47 144.917 1155.66 143.792C1151.96 145.439 1142.16 150.589 1138.77 150.38C1137.17 150.276 1134.56 149.766 1135.07 147.701C1136.37 142.656 1145.17 139.883 1150.87 137.308C1153.17 136.276 1152.57 136.485 1153.07 133.91C1153.67 131.033 1157.48 110.967 1158.37 109.935C1158.67 109.622 1161.86 108.183 1162.47 107.975C1162.77 109.831 1162.98 111.779 1163.07 113.739L1164.07 125.269C1164.07 127.02 1164.37 129.282 1164.67 130.929C1167.27 129.688 1169.86 128.458 1172.57 127.229C1185.97 120.641 1183.46 125.072 1186.67 117.66C1188.47 113.542 1188.37 111.072 1192.37 111.686C1191.66 119.933 1193.86 125.083 1200.16 129.398ZM1197.26 119.214C1195.76 119.724 1196.36 122.091 1198.06 121.685L1200.36 120.861C1201.76 120.444 1201.26 117.985 1199.56 118.391L1197.26 119.214ZM1457.74 174.576C1459.04 175.713 1460.43 173.648 1459.24 172.627L1458.23 171.804C1456.84 170.667 1455.44 172.732 1456.63 173.764L1457.74 174.576ZM1450.84 168.916C1452.14 169.948 1453.64 167.988 1452.44 166.955L1450.45 165.308C1449.15 164.276 1447.65 166.341 1448.95 167.361L1450.84 168.916ZM1443.04 162.745C1444.24 163.777 1445.84 161.817 1444.54 160.692L1442.55 159.149C1441.25 158.221 1439.65 160.182 1441.05 161.214L1443.04 162.745ZM1435.04 156.771C1436.44 157.804 1437.75 155.542 1436.44 154.718L1434.34 153.28C1432.94 152.248 1431.64 154.521 1432.94 155.333L1435.04 156.771ZM1426.84 151.111C1428.23 152.039 1429.54 149.882 1428.23 148.954L1426.14 147.62C1424.74 146.692 1423.34 148.757 1424.74 149.685L1426.84 151.111ZM1418.54 145.66C1419.84 146.483 1421.23 144.43 1419.74 143.502L1417.64 142.168C1416.34 141.345 1414.95 143.398 1416.34 144.326L1418.54 145.66ZM1409.94 140.51C1411.54 141.333 1412.55 139.071 1411.24 138.248L1409.04 137.018C1407.54 136.195 1406.44 138.457 1407.85 139.28L1409.94 140.51ZM1401.34 135.673C1402.84 136.392 1403.84 134.13 1402.45 133.411L1400.25 132.17C1398.75 131.451 1397.65 133.713 1399.14 134.432L1401.34 135.673ZM1392.44 131.149C1393.94 131.869 1395.04 129.607 1393.53 128.783L1391.33 127.751C1389.94 127.032 1388.73 129.189 1390.23 130.013L1392.44 131.149ZM1383.55 126.927C1385.15 127.542 1385.95 125.176 1384.45 124.561L1382.15 123.529C1380.65 122.914 1379.75 125.28 1381.25 125.895L1383.55 126.927ZM1365.14 119.516C1366.84 120.026 1367.34 117.555 1365.94 117.149L1363.54 116.326C1361.84 115.816 1361.34 118.286 1362.74 118.692L1365.14 119.516ZM1355.74 116.43C1357.24 116.941 1357.94 114.47 1356.44 113.96L1354.04 113.241C1352.44 112.823 1351.74 115.294 1353.34 115.711L1355.74 116.43ZM1346.24 113.763C1347.64 114.169 1348.54 111.814 1346.84 111.292L1344.44 110.677C1342.64 110.271 1342.34 112.835 1343.84 113.148L1346.24 113.763ZM1336.65 111.396C1338.25 111.71 1338.65 109.239 1337.15 108.926L1334.64 108.415C1333.04 108.102 1332.55 110.573 1334.14 110.886L1336.65 111.396ZM1326.95 109.541C1328.45 109.854 1329.04 107.383 1327.34 106.966C1326.54 106.861 1325.64 106.652 1324.84 106.56C1323.34 106.246 1322.74 108.717 1324.45 109.135C1325.25 109.227 1326.15 109.332 1326.95 109.541ZM1317.15 107.998C1318.85 108.207 1319.06 105.632 1317.46 105.527L1315.06 105.214C1313.36 105.005 1313.15 107.58 1314.75 107.685L1317.15 107.998ZM1307.35 106.966C1308.95 107.07 1309.25 104.599 1307.55 104.391L1305.05 104.182C1303.55 103.973 1303.16 106.548 1304.95 106.757L1307.35 106.966ZM1297.55 106.246C1299.26 106.351 1299.15 103.776 1297.66 103.776L1295.15 103.671C1293.45 103.567 1293.45 106.142 1295.05 106.142L1297.55 106.246ZM1287.65 106.038C1289.25 106.038 1289.35 103.463 1287.65 103.463C1286.85 103.463 1285.95 103.463 1285.15 103.463C1283.65 103.463 1283.44 106.038 1285.15 106.038C1286.06 106.038 1286.85 106.038 1287.65 106.038ZM1277.75 106.246C1279.56 106.038 1279.25 103.567 1277.65 103.671L1275.25 103.776C1273.55 103.88 1273.75 106.455 1275.35 106.351L1277.75 106.246ZM1267.96 106.757C1269.56 106.652 1269.36 104.077 1267.76 104.182L1265.25 104.391C1263.65 104.495 1263.86 107.07 1265.46 106.966L1267.96 106.757ZM1258.15 107.685C1259.65 107.58 1259.55 105.005 1257.85 105.214C1257.05 105.319 1256.15 105.423 1255.35 105.527C1253.85 105.632 1253.95 108.207 1255.65 107.998C1256.45 107.893 1257.25 107.789 1258.15 107.685ZM1248.36 109.019C1250.06 108.705 1249.46 106.246 1247.96 106.548L1245.45 106.861C1243.85 107.279 1244.35 109.749 1245.85 109.436L1248.36 109.019ZM1238.55 110.77C1240.15 110.457 1239.76 107.893 1238.16 108.195L1235.66 108.705C1234.16 109.019 1234.55 111.489 1236.15 111.176L1238.55 110.77ZM1228.95 112.73C1230.45 112.521 1230.06 109.958 1228.35 110.26L1225.95 110.874C1224.25 111.292 1225.05 113.751 1226.55 113.345L1228.95 112.73ZM1219.36 115.201C1220.96 114.69 1220.26 112.22 1218.66 112.73L1216.26 113.345C1214.66 113.751 1215.36 116.222 1216.96 115.816L1219.36 115.201ZM1209.76 117.88C1211.36 117.474 1210.76 114.899 1209.06 115.41L1206.76 116.129C1205.26 116.535 1205.76 119.005 1207.46 118.599L1209.76 117.88ZM1657.52 105.632C1656.02 106.142 1656.61 108.508 1658.32 108.102L1660.62 107.279C1662.01 106.861 1661.62 104.402 1659.82 104.913L1657.52 105.632ZM1918 161.098C1919.29 162.13 1920.79 160.066 1919.5 159.138L1918.49 158.21C1917.09 157.073 1915.7 159.242 1916.89 160.17L1918 161.098ZM1911.1 155.438C1912.41 156.47 1913.89 154.405 1912.7 153.385L1910.69 151.842C1909.4 150.81 1907.89 152.77 1909.19 153.802L1911.1 155.438ZM1903.3 149.163C1904.49 150.195 1906.09 148.235 1904.8 147.202L1902.8 145.66C1901.51 144.627 1899.91 146.588 1901.3 147.713L1903.3 149.163ZM1895.3 143.294C1896.7 144.221 1898 142.064 1896.7 141.136L1894.7 139.698C1893.2 138.77 1891.89 140.939 1893.3 141.855L1895.3 143.294ZM1887.1 137.529C1888.5 138.457 1889.8 136.299 1888.5 135.371L1886.41 134.038C1885.01 133.11 1883.7 135.279 1885.01 136.195L1887.1 137.529ZM1878.8 132.077C1880.11 133.005 1881.5 130.941 1880.11 129.92L1877.91 128.586C1876.71 127.762 1875.21 129.816 1876.71 130.848L1878.8 132.077ZM1870.3 126.927C1871.8 127.751 1872.8 125.489 1871.51 124.77L1869.31 123.436C1867.81 122.717 1866.7 124.979 1868.11 125.698L1870.3 126.927ZM1861.61 122.091C1863.11 122.81 1864.21 120.652 1862.7 119.829L1860.51 118.692C1859.01 117.869 1858 120.235 1859.4 120.954L1861.61 122.091ZM1852.71 117.567C1854.21 118.286 1855.31 116.024 1853.81 115.305L1851.61 114.169C1850.22 113.449 1849.02 115.711 1850.51 116.43L1852.71 117.567ZM1843.8 113.345C1845.4 113.96 1846.2 111.594 1844.71 110.979L1842.51 109.947C1840.91 109.332 1840.01 111.802 1841.5 112.313L1843.8 113.345ZM1834.61 109.541C1836.11 110.155 1837.1 107.789 1835.51 107.07L1833.21 106.246C1831.71 105.632 1830.81 107.998 1832.31 108.613L1834.61 109.541ZM1825.41 106.038C1827.11 106.548 1827.61 103.985 1826.21 103.567L1823.81 102.744C1822.11 102.233 1821.61 104.704 1823.01 105.214L1825.41 106.038ZM1816.01 102.848C1817.61 103.358 1818.21 100.899 1816.71 100.482L1814.31 99.7626C1812.71 99.2523 1812.01 101.723 1813.61 102.129L1816.01 102.848ZM1806.51 100.18C1807.91 100.586 1808.81 98.2199 1807.11 97.7096L1804.71 97.0949C1802.9 96.6889 1802.6 99.2523 1804.11 99.5654L1806.51 100.18ZM1796.91 97.9068C1798.51 98.22 1798.9 95.645 1797.4 95.3318L1794.9 94.8215C1793.3 94.5083 1792.9 96.9789 1794.51 97.292L1796.91 97.9068ZM1787.22 95.9582C1788.71 96.2713 1789.32 93.8008 1787.61 93.4876C1786.81 93.2788 1786.01 93.1744 1785.11 92.9772C1783.71 92.7685 1783.01 95.239 1784.71 95.5522C1785.61 95.645 1786.42 95.8538 1787.22 95.9582ZM1777.41 94.4155C1779.11 94.6243 1779.32 92.1537 1777.71 91.9449L1775.31 91.6317C1773.61 91.423 1773.41 93.9979 1775.01 94.1023L1777.41 94.4155ZM1767.62 93.3832C1769.22 93.592 1769.51 91.017 1767.82 90.8082L1765.32 90.5994C1763.82 90.495 1763.41 92.9656 1765.22 93.1744L1767.62 93.3832ZM1757.81 92.7684C1759.51 92.7684 1759.41 90.1935 1757.91 90.1935L1755.41 90.0891C1753.71 90.0891 1753.71 92.5597 1755.31 92.6641L1757.81 92.7684ZM1747.92 92.4553C1749.52 92.4553 1749.62 89.9847 1747.92 89.8803C1747.12 89.8803 1746.21 89.8803 1745.41 89.8803C1743.91 89.8803 1743.71 92.4553 1745.41 92.4553C1746.32 92.4553 1747.12 92.4553 1747.92 92.4553ZM1738.02 92.6641C1739.82 92.5597 1739.52 89.9847 1737.92 90.0891L1735.52 90.1935C1733.82 90.2979 1734.02 92.8728 1735.62 92.7684L1738.02 92.6641ZM1728.22 93.1744C1729.82 93.07 1729.71 90.495 1728.01 90.7038L1725.51 90.9126C1723.91 91.017 1724.11 93.4876 1725.71 93.3832L1728.22 93.1744ZM1718.42 94.2067C1719.92 93.9979 1719.82 91.423 1718.12 91.6317C1717.32 91.7361 1716.42 91.8405 1715.62 91.9449C1714.12 92.0493 1714.22 94.6243 1715.92 94.4155C1716.72 94.3111 1717.52 94.2067 1718.42 94.2067ZM1708.62 95.4362C1710.32 95.123 1709.71 92.6641 1708.22 92.9656L1705.72 93.3716C1704.12 93.6848 1704.62 96.1553 1706.11 95.8422L1708.62 95.4362ZM1698.81 97.1876C1700.41 96.8745 1700.02 94.4155 1698.42 94.7171L1695.93 95.123C1694.43 95.4362 1694.82 97.9996 1696.42 97.698L1698.81 97.1876ZM1689.22 99.2523C1690.72 98.9391 1690.32 96.3757 1688.62 96.7817L1686.22 97.292C1684.52 97.8024 1685.32 100.18 1686.82 99.7626L1689.22 99.2523ZM1679.62 101.618C1681.22 101.108 1680.52 98.7419 1679.02 99.1479L1676.52 99.7626C1674.92 100.273 1675.62 102.639 1677.22 102.233L1679.62 101.618ZM1670.12 104.286C1671.62 103.88 1671.02 101.41 1669.42 101.816L1667.02 102.535C1665.52 102.941 1666.01 105.516 1667.72 105.005L1670.12 104.286Z" fill="#CCCCCC"/>
</g>
<g opacity="0.2" clip-path="url(#clip1_420_60)">
<path fill-rule="evenodd" clip-rule="evenodd" d="M259.576 115.816C262.371 118.495 261.57 118.182 268.073 116.222C273.776 114.366 271.071 113.751 276.177 116.732C280.775 119.516 288.281 122.288 291.775 124.445C290.468 127.426 279.276 137.204 276.571 141.217C277.574 141.728 278.375 142.145 279.468 142.656C281.17 143.479 280.764 143.479 282.77 142.25C287.165 139.675 301.276 131.439 304.071 130.21C307.767 131.857 317.573 137.007 320.965 136.798C322.565 136.694 325.169 136.288 324.662 134.223C323.366 129.178 314.563 126.405 308.861 123.83C306.562 122.798 307.159 122.903 306.663 120.328C306.054 117.555 302.256 97.3848 301.366 96.3525C300.971 96.0394 297.872 94.7055 297.264 94.3923C296.959 96.2481 296.768 98.3012 296.666 100.261L295.663 111.686C295.663 113.542 295.359 115.7 295.066 117.451C292.462 116.117 289.87 114.98 287.165 113.647C273.765 107.058 276.165 111.489 273.066 104.077C271.263 99.9598 271.263 97.4892 267.363 98.104C268.073 106.351 265.876 111.489 259.576 115.816ZM373.372 36.0612C369.765 37.1978 370.577 37.3022 365.573 32.5583C361.178 28.4406 363.871 29.0554 357.977 29.5773C352.781 29.9833 344.779 29.2642 340.677 29.6817C340.575 32.8714 346.673 46.6626 347.473 51.4994C346.368 51.4994 345.478 51.4994 344.272 51.4994C342.367 51.4994 342.773 51.7081 341.376 49.7479C338.479 45.4215 329.271 31.7347 327.175 29.4729C323.073 29.3686 312.174 29.5773 309.176 28.0347C307.779 27.2111 305.581 25.5641 306.877 23.917C310.179 20.0082 319.274 21.3421 325.473 21.5509C327.975 21.5509 327.367 21.4465 328.978 19.3935C330.68 17.1317 342.48 0.55675 343.675 0.0463958C344.171 -0.0579948 347.574 0.0463958 348.172 0.0463958C347.766 1.90223 347.067 3.74646 346.368 5.6023L342.469 16.4009C341.77 18.048 341.071 20.2054 340.564 21.8524C343.461 21.748 346.368 21.8524 349.366 21.8524C364.164 21.8524 360.062 24.8334 366.069 19.4862C369.36 16.5053 370.363 14.3363 373.665 16.6097C369.664 23.7199 369.472 29.3686 373.372 36.0612ZM374.972 25.5641C373.473 25.3553 372.966 27.7215 374.679 28.0347L377.08 28.3478C378.579 28.661 379.187 26.1904 377.486 25.8773L374.972 25.5641ZM587.35 190.223C588.15 191.87 590.348 190.629 589.649 189.191L589.052 187.857C588.252 186.314 586.054 187.544 586.854 188.993L587.35 190.223ZM583.552 182.092C584.352 183.635 586.55 182.51 585.75 180.955L584.645 178.693C583.947 177.151 581.749 178.38 582.448 179.819L583.552 182.092ZM579.055 173.033C579.754 174.471 582.053 173.439 581.253 171.897L580.058 169.635C579.36 168.196 577.162 169.229 577.861 170.876L579.055 173.033ZM574.254 164.183C575.156 165.726 577.252 164.288 576.452 162.942L575.156 160.68C574.254 159.138 572.259 160.576 573.059 161.91L574.254 164.183ZM569.25 155.438C570.152 156.876 572.248 155.542 571.346 154.104L570.05 151.946C569.25 150.508 567.052 151.842 567.954 153.28L569.25 155.438ZM563.953 146.796C564.753 148.13 566.951 146.901 566.049 145.463L564.652 143.305C563.852 141.971 561.654 143.201 562.657 144.743L563.953 146.796ZM558.453 138.457C559.456 139.791 561.35 138.248 560.448 136.914L559.05 134.861C558.047 133.527 556.053 135.07 557.056 136.404L558.453 138.457ZM552.66 130.221C553.663 131.555 555.557 130.013 554.565 128.679L553.066 126.626C552.063 125.292 550.169 126.939 551.172 128.168L552.66 130.221ZM546.856 122.508C547.758 123.019 548.851 122.195 548.761 121.174C548.862 120.56 548.366 119.736 547.656 119.632L546.856 118.599C545.853 117.37 543.858 118.912 544.951 120.246L545.154 120.56L544.76 120.664C543.159 121.279 544.162 123.645 545.661 123.03L546.856 122.508ZM540.15 114.482C541.356 115.723 543.047 113.971 541.953 112.73L540.353 110.874C539.158 109.541 537.457 111.385 538.55 112.521L540.15 114.482ZM533.456 106.966C534.56 108.195 536.453 106.455 535.259 105.214L533.557 103.358C532.452 102.129 530.661 103.869 531.754 105.11L533.456 106.966ZM526.558 99.7626C527.854 100.899 529.455 98.9391 528.26 97.9068L526.558 96.1553C525.262 94.9143 523.662 96.8745 524.755 98.0112L526.558 99.7626ZM519.356 92.7684C520.562 93.9051 522.253 92.0493 521.058 90.9126L519.154 89.1612C517.959 88.0245 516.257 89.9847 517.553 91.1214L519.356 92.7684ZM511.963 86.1802C513.068 87.2126 514.758 85.3567 513.462 84.2316L511.557 82.5846C510.16 81.4479 508.762 83.6169 510.058 84.5448L511.963 86.1802ZM504.164 79.8008C505.562 80.8331 506.959 78.7685 505.663 77.8406L503.758 76.2979C502.361 75.2656 500.963 77.3302 502.259 78.2582L504.164 79.8008ZM496.263 73.8274C497.458 74.7553 499.059 72.795 497.661 71.7743C496.962 71.264 496.263 70.742 495.565 70.3361C494.37 69.4081 492.77 71.3684 494.167 72.3891C494.855 72.8994 495.553 73.317 496.263 73.8274ZM488.059 68.1671C489.456 69.095 490.662 66.8332 489.355 66.0097L487.259 64.6758C485.861 63.7479 484.554 66.0097 485.962 66.8332L488.059 68.1671ZM479.662 62.9243C480.958 63.7479 482.356 61.5905 480.857 60.6625L478.659 59.433C477.363 58.6095 475.966 60.7669 477.465 61.6948L479.662 62.9243ZM470.962 57.9832C472.562 58.8067 473.565 56.4405 472.168 55.7214L469.97 54.4919C468.471 53.7728 467.366 56.1389 468.764 56.8581L470.962 57.9832ZM462.159 53.4596C463.557 54.1787 464.763 51.9169 463.264 51.0934C462.464 50.7802 461.765 50.3743 460.965 50.0611C459.567 49.342 458.463 51.6038 459.962 52.3229C460.661 52.7289 461.461 53.042 462.159 53.4596ZM453.166 49.2376C454.766 49.8523 455.566 47.4861 454.169 46.8714L451.87 45.8391C450.269 45.2243 449.469 47.6833 450.968 48.2053L453.166 49.2376ZM444.059 45.4215C445.558 46.0363 446.46 43.6701 444.961 43.0553L442.56 42.1274C441.163 41.5127 440.16 43.8788 441.76 44.4936L444.059 45.4215ZM434.761 41.9302C436.26 42.4406 437.162 40.0744 435.562 39.564C434.761 39.2509 433.961 38.9493 433.161 38.7405C431.763 38.1258 430.862 40.492 432.462 41.1067C433.262 41.4083 433.961 41.6171 434.761 41.9302ZM425.362 38.8449C427.064 39.2509 427.56 36.7919 426.061 36.3743L423.66 35.6552C422.06 35.2492 421.462 37.7082 423.063 38.1258L425.362 38.8449ZM415.861 36.0612C417.461 36.4787 418.059 34.0081 416.458 33.5906L414.058 32.9758C412.559 32.5699 411.86 35.0288 413.46 35.4464L415.861 36.0612ZM406.27 33.695C407.769 34.1009 408.569 31.642 406.867 31.12L404.365 30.6096C402.664 30.2965 402.359 32.8714 403.869 33.0802L406.27 33.695ZM396.668 31.5376C398.268 31.8507 398.663 29.3802 397.062 29.067L394.662 28.661C392.96 28.3478 392.565 30.8184 394.166 31.1316L396.668 31.5376ZM386.874 29.7861C388.474 30.0993 388.97 27.6287 387.268 27.3155L384.868 26.9096C383.267 26.5964 382.771 29.1714 384.473 29.4845L386.874 29.7861ZM719.844 129.398C722.65 132.077 721.839 131.764 728.342 129.711C734.045 127.96 731.34 127.241 736.445 130.326C741.043 133.005 748.549 135.882 752.043 138.039C750.747 141.02 739.545 150.798 736.84 154.811C737.843 155.322 738.643 155.635 739.736 156.145C741.438 157.073 741.032 157.073 743.038 155.832C747.434 153.257 761.533 144.917 764.339 143.792C768.036 145.439 777.841 150.589 781.233 150.38C782.834 150.276 785.437 149.766 784.93 147.701C783.634 142.656 774.832 139.883 769.129 137.308C766.83 136.276 767.427 136.485 766.931 133.91C766.334 131.033 762.525 110.967 761.634 109.935C761.33 109.622 758.141 108.183 757.532 107.975C757.228 109.831 757.025 111.779 756.935 113.739L755.932 125.269C755.932 127.02 755.627 129.282 755.334 130.929C752.731 129.688 750.139 128.458 747.434 127.229C734.033 120.641 736.535 125.072 733.335 117.66C731.531 113.542 731.633 111.072 727.632 111.686C728.342 119.933 726.144 125.083 719.844 129.398ZM722.74 119.214C724.239 119.724 723.642 122.091 721.94 121.685L719.641 120.861C718.244 120.444 718.74 117.985 720.441 118.391L722.74 119.214ZM462.261 174.576C460.965 175.713 459.567 173.648 460.762 172.627L461.765 171.804C463.163 170.667 464.56 172.732 463.365 173.764L462.261 174.576ZM469.158 168.916C467.862 169.948 466.363 167.988 467.558 166.955L469.553 165.308C470.849 164.276 472.348 166.341 471.052 167.361L469.158 168.916ZM476.957 162.745C475.763 163.777 474.162 161.817 475.458 160.692L477.453 159.149C478.749 158.221 480.35 160.182 478.952 161.214L476.957 162.745ZM484.959 156.771C483.562 157.804 482.255 155.542 483.562 154.718L485.658 153.28C487.056 152.248 488.363 154.521 487.056 155.333L484.959 156.771ZM493.164 151.111C491.767 152.039 490.459 149.882 491.767 148.954L493.863 147.62C495.26 146.692 496.658 148.757 495.26 149.685L493.164 151.111ZM501.459 145.66C500.163 146.483 498.766 144.43 500.264 143.502L502.361 142.168C503.657 141.345 505.054 143.398 503.657 144.326L501.459 145.66ZM510.058 140.51C508.458 141.333 507.455 139.071 508.762 138.248L510.96 137.018C512.459 136.195 513.563 138.457 512.155 139.28L510.058 140.51ZM518.658 135.673C517.159 136.392 516.156 134.13 517.553 133.411L519.751 132.17C521.25 131.451 522.354 133.713 520.855 134.432L518.658 135.673ZM527.561 131.149C526.062 131.869 524.958 129.607 526.468 128.783L528.666 127.751C530.063 127.032 531.269 129.189 529.77 130.013L527.561 131.149ZM536.453 126.927C534.853 127.542 534.053 125.176 535.552 124.561L537.851 123.529C539.35 122.914 540.252 125.28 538.753 125.895L536.453 126.927ZM554.858 119.516C553.156 120.026 552.66 117.555 554.058 117.149L556.458 116.326C558.16 115.816 558.656 118.286 557.258 118.692L554.858 119.516ZM564.257 116.43C562.758 116.941 562.06 114.47 563.559 113.96L565.959 113.241C567.56 112.823 568.258 115.294 566.658 115.711L564.257 116.43ZM573.758 113.763C572.361 114.169 571.459 111.814 573.161 111.292L575.561 110.677C577.365 110.271 577.658 112.835 576.159 113.148L573.758 113.763ZM583.349 111.396C581.749 111.71 581.354 109.239 582.853 108.926L585.355 108.415C586.956 108.102 587.452 110.573 585.863 110.886L583.349 111.396ZM593.053 109.541C591.554 109.854 590.957 107.383 592.658 106.966C593.459 106.861 594.36 106.652 595.161 106.56C596.659 106.246 597.257 108.717 595.555 109.135C594.755 109.227 593.853 109.332 593.053 109.541ZM602.847 107.998C601.145 108.207 600.942 105.632 602.543 105.527L604.943 105.214C606.645 105.005 606.848 107.58 605.247 107.685L602.847 107.998ZM612.652 106.966C611.052 107.07 610.747 104.599 612.449 104.391L614.951 104.182C616.45 103.973 616.845 106.548 615.053 106.757L612.652 106.966ZM622.446 106.246C620.744 106.351 620.846 103.776 622.344 103.776L624.847 103.671C626.548 103.567 626.548 106.142 624.948 106.142L622.446 106.246ZM632.353 106.038C630.752 106.038 630.651 103.463 632.353 103.463C633.153 103.463 634.054 103.463 634.855 103.463C636.354 103.463 636.556 106.038 634.855 106.038C633.942 106.038 633.153 106.038 632.353 106.038ZM642.248 106.246C640.445 106.038 640.749 103.567 642.349 103.671L644.75 103.776C646.452 103.88 646.249 106.455 644.648 106.351L642.248 106.246ZM652.042 106.757C650.441 106.652 650.644 104.077 652.245 104.182L654.747 104.391C656.347 104.495 656.144 107.07 654.544 106.966L652.042 106.757ZM661.847 107.685C660.348 107.58 660.449 105.005 662.151 105.214C662.951 105.319 663.853 105.423 664.653 105.527C666.152 105.632 666.051 108.207 664.349 107.998C663.549 107.893 662.749 107.789 661.847 107.685ZM671.641 109.019C669.939 108.705 670.536 106.246 672.035 106.548L674.549 106.861C676.149 107.279 675.653 109.749 674.154 109.436L671.641 109.019ZM681.446 110.77C679.846 110.457 680.24 107.893 681.84 108.195L684.343 108.705C685.841 109.019 685.447 111.489 683.847 111.176L681.446 110.77ZM691.048 112.73C689.549 112.521 689.944 109.958 691.646 110.26L694.046 110.874C695.748 111.292 694.948 113.751 693.449 113.345L691.048 112.73ZM700.639 115.201C699.039 114.69 699.738 112.22 701.338 112.73L703.739 113.345C705.339 113.751 704.64 116.222 703.04 115.816L700.639 115.201ZM710.242 117.88C708.641 117.474 709.239 114.899 710.94 115.41L713.24 116.129C714.739 116.535 714.243 119.005 712.541 118.599L710.242 117.88ZM262.483 105.632C263.982 106.142 263.385 108.508 261.683 108.102L259.384 107.279C257.987 106.861 258.381 104.402 260.184 104.913L262.483 105.632ZM2.00385 161.098C0.707764 162.13 -0.791199 160.066 0.504883 159.138L1.50793 158.21C2.90546 157.073 4.30298 159.242 3.10834 160.17L2.00385 161.098ZM8.90131 155.438C7.59393 156.47 6.10626 154.405 7.3009 153.385L9.30701 151.842C10.6031 150.81 12.1133 152.77 10.806 153.802L8.90131 155.438ZM16.7003 149.163C15.5057 150.195 13.9053 148.235 15.2014 147.202L17.1962 145.66C18.4923 144.627 20.0927 146.588 18.6952 147.713L16.7003 149.163ZM24.7023 143.294C23.3047 144.221 21.9973 142.064 23.3047 141.136L25.2996 139.698C26.7985 138.77 28.1059 140.939 26.6971 141.855L24.7023 143.294ZM32.8958 137.529C31.4982 138.457 30.2021 136.299 31.4982 135.371L33.5945 134.038C34.992 133.11 36.2994 135.279 34.9921 136.195L32.8958 137.529ZM41.202 132.077C39.8946 133.005 38.4971 130.941 39.8947 129.92L42.0923 128.586C43.287 127.762 44.786 129.816 43.287 130.848L41.202 132.077ZM49.6998 126.927C48.2009 127.751 47.1978 125.489 48.4939 124.77L50.6917 123.436C52.1906 122.717 53.2951 124.979 51.8863 125.698L49.6998 126.927ZM58.3892 122.091C56.8903 122.81 55.7858 120.652 57.296 119.829L59.4937 118.692C60.9927 117.869 61.9957 120.235 60.5982 120.954L58.3892 122.091ZM67.2928 117.567C65.7938 118.286 64.6893 116.024 66.1883 115.305L68.386 114.169C69.7835 113.449 70.9781 115.711 69.4905 116.43L67.2928 117.567ZM76.1964 113.345C74.5959 113.96 73.7957 111.594 75.2947 110.979L77.4924 109.947C79.0928 109.332 79.9944 111.802 78.4955 112.313L76.1964 113.345ZM85.3929 109.541C83.8939 110.155 82.9022 107.789 84.4913 107.07L86.7904 106.246C88.2894 105.632 89.191 107.998 87.692 108.613L85.3929 109.541ZM94.5895 106.038C92.8876 106.548 92.3918 103.985 93.7893 103.567L96.1899 102.744C97.8917 102.233 98.3876 104.704 96.9901 105.214L94.5895 106.038ZM103.989 102.848C102.388 103.358 101.791 100.899 103.29 100.482L105.691 99.7626C107.291 99.2523 107.99 101.723 106.39 102.129L103.989 102.848ZM113.49 100.18C112.092 100.586 111.191 98.2199 112.893 97.7096L115.293 97.0949C117.096 96.6889 117.401 99.2523 115.89 99.5654L113.49 100.18ZM123.092 97.9068C121.492 98.22 121.097 95.645 122.596 95.3318L125.098 94.8215C126.699 94.5083 127.104 96.9789 125.493 97.292L123.092 97.9068ZM132.785 95.9582C131.286 96.2713 130.677 93.8008 132.39 93.4876C133.19 93.2788 133.99 93.1744 134.892 92.9772C136.29 92.7685 136.988 95.239 135.287 95.5522C134.385 95.645 133.585 95.8538 132.785 95.9582ZM142.59 94.4155C140.888 94.6243 140.685 92.1537 142.285 91.9449L144.686 91.6317C146.388 91.423 146.591 93.9979 144.99 94.1023L142.59 94.4155ZM152.384 93.3832C150.783 93.592 150.49 91.017 152.181 90.8082L154.683 90.5994C156.182 90.495 156.587 92.9656 154.784 93.1744L152.384 93.3832ZM162.189 92.7684C160.487 92.7684 160.588 90.1935 162.087 90.1935L164.589 90.0891C166.291 90.0891 166.291 92.5597 164.691 92.6641L162.189 92.7684ZM172.084 92.4553C170.484 92.4553 170.382 89.9847 172.084 89.8803C172.884 89.8803 173.786 89.8803 174.586 89.8803C176.085 89.8803 176.288 92.4553 174.586 92.4553C173.685 92.4553 172.884 92.4553 172.084 92.4553ZM181.979 92.6641C180.176 92.5597 180.481 89.9847 182.081 90.0891L184.482 90.1935C186.183 90.2979 185.98 92.8728 184.38 92.7684L181.979 92.6641ZM191.785 93.1744C190.184 93.07 190.286 90.495 191.988 90.7038L194.49 90.9126C196.09 91.017 195.887 93.4876 194.287 93.3832L191.785 93.1744ZM201.579 94.2067C200.08 93.9979 200.181 91.423 201.883 91.6317C202.683 91.7361 203.585 91.8405 204.385 91.9449C205.884 92.0493 205.782 94.6243 204.081 94.4155C203.28 94.3111 202.48 94.2067 201.579 94.2067ZM211.384 95.4362C209.682 95.123 210.291 92.6641 211.778 92.9656L214.28 93.3716C215.881 93.6848 215.385 96.1553 213.886 95.8422L211.384 95.4362ZM221.189 97.1876C219.589 96.8745 219.983 94.4155 221.583 94.7171L224.074 95.123C225.573 95.4362 225.179 97.9996 223.578 97.698L221.189 97.1876ZM230.78 99.2523C229.281 98.9391 229.675 96.3757 231.377 96.7817L233.778 97.292C235.48 97.8024 234.68 100.18 233.181 99.7626L230.78 99.2523ZM240.382 101.618C238.782 101.108 239.481 98.7419 240.98 99.1479L243.482 99.7626C245.082 100.273 244.383 102.639 242.783 102.233L240.382 101.618ZM249.883 104.286C248.384 103.88 248.982 101.41 250.582 101.816L252.982 102.535C254.481 102.941 253.986 105.516 252.284 105.005L249.883 104.286Z" fill="#CCCCCC"/>
</g>
<defs>
<clipPath id="clip0_420_60">
<rect width="785" height="191" fill="white" transform="translate(1135)"/>
</clipPath>
<clipPath id="clip1_420_60">
<rect width="785" height="191" fill="white" transform="matrix(-1 0 0 1 785 0)"/>
</clipPath>
</defs>
</svg>
